<svg width="189" height="302" viewBox="0 0 189 302" fill="none" xmlns="http://www.w3.org/2000/svg">
<path d="M57.0253 112.847C57.6443 111.919 60.894 110.913 62.4416 110.526L104.998 100.467C107.835 103.82 113.819 110.526 115.057 110.526C116.605 110.526 118.926 114.008 120.473 114.008C122.021 114.008 133.24 119.811 134.401 120.972C135.562 122.132 139.43 121.745 142.525 121.745C145.62 121.745 148.329 134.899 148.329 136.06C148.329 137.221 150.65 156.178 150.65 158.499C150.65 160.82 148.329 172.427 148.329 176.682C148.329 180.087 145.491 190.223 144.073 194.866C147.813 209.825 155.06 240.208 154.132 242.065C152.971 244.386 157.614 255.992 159.548 258.7C161.482 261.409 159.548 276.497 159.548 279.979C159.548 283.461 158.774 285.782 157.614 289.651C156.685 292.746 160.322 298.678 162.256 301.257L22.5931 300.096C23.3668 297.517 24.9143 291.817 24.9143 289.651C24.9143 286.943 24.1406 283.074 24.9143 279.979C25.6881 276.884 28.3963 278.044 28.7831 276.497C29.17 274.949 23.3668 267.986 22.5931 264.117C21.8193 260.248 24.5275 255.992 24.9143 254.445C25.3012 252.897 31.4913 220.786 33.4257 218.465C35.3601 216.144 40.3895 206.085 42.3239 203.377C44.2583 200.669 44.2583 194.866 44.2583 192.931C44.2583 190.997 45.8058 184.033 44.2583 182.099C42.7108 180.164 44.2583 178.617 44.2583 177.456C44.2583 176.295 43.8714 174.748 41.1632 171.266C38.4551 167.784 36.9076 153.083 34.9732 149.988C33.4257 147.512 24.0116 134.77 19.498 128.709C19.756 128.193 20.5039 127.162 21.4324 127.162C22.5931 127.162 22.98 127.162 24.1406 126.388C25.3012 125.614 26.075 126.775 29.5569 127.162C33.0388 127.549 31.4913 126.388 33.4257 124.454C35.3601 122.519 35.3601 125.227 36.9076 124.454C38.4551 123.68 40.0026 122.519 41.1632 121.745C42.3239 120.972 44.2583 119.811 45.8058 118.65C47.3533 117.49 48.1271 116.716 49.2877 116.716H51.609C53.1565 115.813 56.4063 113.776 57.0253 112.847Z" fill="#85C0B2"/>
<path d="M155.68 122.906H141.366L146.009 168.945L143.3 192.544C148.459 194.35 159.317 197.961 161.484 197.961C164.192 197.961 169.221 208.406 171.156 213.049C173.09 217.691 180.828 224.655 182.762 228.137C184.309 230.923 180.054 235.746 177.733 237.809C179.151 237.551 182.375 236.803 183.923 235.875C185.857 234.714 188.565 222.721 188.565 221.173C188.565 219.626 188.952 198.734 188.565 197.961C188.178 197.187 184.696 185.967 183.923 184.033C183.149 182.099 184.696 179.777 184.696 178.617C184.696 177.456 181.214 171.653 180.828 170.879C180.441 170.105 179.667 168.171 179.667 165.85C179.667 163.528 179.667 162.368 177.733 161.207C175.798 160.046 177.733 157.725 177.733 154.63C177.733 151.535 177.346 151.922 175.798 151.148C174.251 150.375 167.674 132.965 167.287 131.031C166.9 129.096 158.002 122.906 155.68 122.906Z" fill="#8AC6B8"/>
<path d="M11.7616 134.899C12.3806 131.804 18.2095 129.225 21.0467 128.322C24.5286 126.927 26.076 126.001 29.9448 126.388C33.8136 126.775 34.5874 134.899 34.5874 139.155C34.5874 143.411 36.5217 147.666 36.5217 150.761C36.5217 153.856 40.0037 159.66 41.5512 164.689C43.0987 169.718 40.3905 167.784 41.5512 169.331C42.7118 170.879 47.3543 173.974 47.3543 177.069C47.3543 180.164 46.1937 182.485 47.3543 185.58C48.515 188.675 48.1281 194.865 48.1281 196.026C48.1281 197.187 47.3543 204.151 48.1281 206.472C48.9019 208.793 49.6756 209.954 49.6756 212.275C49.6756 214.029 51.0563 215.001 51.8615 215.32C51.9111 215.337 51.9564 215.354 51.9969 215.37C51.954 215.356 51.9087 215.339 51.8615 215.32C51.1206 215.071 49.3847 214.79 47.3543 215.37C44.6462 216.144 37.2955 223.881 36.5217 225.042C35.748 226.203 29.5579 231.232 26.076 233.553C23.2905 235.41 20.5308 244.128 19.4991 248.255C18.7253 247.352 16.9457 245.082 16.0172 243.225C14.8566 240.904 14.0828 238.97 13.6959 236.648C13.309 234.327 11.7616 231.619 10.214 229.685C8.66645 227.75 6.73211 226.203 6.73211 225.042V219.239V207.246C6.73211 206.085 4.02401 201.442 2.47649 201.056C0.928968 200.669 2.47649 198.734 2.47649 196.026C2.47649 193.318 0.929198 190.61 0.155441 188.289C-0.618316 185.967 2.47649 183.259 2.47649 181.712V177.069V173.587C2.47649 172.555 2.78599 170.26 4.02401 169.331C5.57152 168.171 2.86337 166.623 2.47649 164.689C2.08961 162.755 4.02401 160.82 4.02401 159.66C4.02401 158.499 4.41088 155.017 4.02401 153.469C3.63713 151.922 10.9878 138.768 11.7616 134.899Z" fill="#8DC6B8"/>
<path d="M64.1242 113.661C65.5868 110.005 64.7336 98.4253 64.1242 93.0927L102.976 89.436C104.043 87.4553 106.176 84.3167 106.176 87.6077V105.891L109.375 121.889L91.092 136.058L65.7996 131.804L60.4675 121.889C61.077 120.67 62.6615 117.318 64.1242 113.661Z" fill="#DDB8B0"/>
<path d="M57.269 36.8718C55.4407 38.7001 54.9836 47.6894 54.9836 51.9555L53.1553 53.7838C53.0029 53.6315 52.5153 53.8752 51.784 54.2409C50.8698 54.698 50.8698 65.2108 51.784 71.1529C52.5153 75.9065 55.1359 77.0949 56.3548 77.0949C56.8119 84.8653 58.1831 88.0649 60.0115 91.7215C61.8398 95.3782 73.7239 104.977 76.0093 105.891C78.2947 106.805 85.1509 106.805 90.1788 105.891C95.2067 104.977 104.805 94.0069 105.72 92.1786C106.451 90.716 108.462 83.3417 109.376 79.8374C113.033 80.2945 114.404 76.6379 115.318 75.2666C116.232 73.8954 116.69 56.9834 115.318 56.0692C114.221 55.3379 113.338 55.7645 113.033 56.0692C112.271 55.3074 110.747 53.4181 110.747 51.9555V40.9855C110.747 40.2542 107.396 30.9298 105.72 26.3589L94.2926 21.3311C89.2647 21.7881 78.9346 22.7023 77.8376 22.7023C76.7406 22.7023 68.2389 26.3589 64.1252 28.1873C62.6016 30.3203 59.0973 35.0435 57.269 36.8718Z" fill="#E6C2BA"/>
<path d="M95.6321 84.7557V81.5561C95.6321 81.8608 94.9007 82.0132 93.8037 83.8415C93.8037 84.7557 94.2608 87.0411 94.2608 89.3265C93.9561 89.7836 93.2552 91.0634 92.8896 92.526C92.5239 93.9887 92.4325 94.0496 92.4325 93.8973V94.8114C92.1278 95.2685 91.0613 96.1827 91.0613 96.1827C91.0613 96.1827 88.7759 96.6398 88.3188 97.0969C87.9531 97.4625 86.7952 98.011 86.4904 98.011L86.0334 97.0969L85.1192 97.5539L83.748 98.4681L82.3767 97.5539V98.4681H79.1772L78.7201 97.5539H76.8917C76.1604 97.5539 75.0634 97.2492 74.6063 97.0969L72.778 94.8114L71.4068 91.1548L70.4926 90.2406C70.3402 89.9359 69.8527 89.1436 69.1214 88.4123C68.39 87.681 68.5119 87.1934 68.6643 87.0411V80.1849H67.7501L66.836 81.5561V82.4703V84.7557V87.0411V90.2406L65.9218 91.1548V92.069L64.5506 94.8114C64.0935 94.202 63.0879 92.9831 62.7222 92.9831C62.3566 92.9831 61.351 91.4595 60.8939 90.6977L57.6943 85.6698C57.6943 87.4981 59.0055 90.5776 59.5227 91.6119C60.8939 94.3544 65.4647 98.011 65.9218 98.9252C66.3789 99.8393 74.6063 104.867 75.5205 105.781C76.4347 106.696 76.8917 106.696 82.3767 107.153C86.7647 107.518 92.1278 105.781 94.2608 104.867C95.3274 103.801 97.9175 101.393 99.7458 100.296C102.031 98.9252 107.059 90.6977 108.43 89.3265C109.527 88.2295 109.802 84.2986 109.802 82.4703V79.7278L108.887 79.2707C108.735 80.0325 108.43 81.7389 108.43 82.4703C108.43 83.3844 107.516 83.8415 107.516 84.7557C107.516 85.487 107.516 85.9745 107.059 86.1269L106.602 87.0411L105.688 89.3265L104.317 92.069L102.945 92.9831H101.117L100.66 92.069H98.8316V91.1548L97.4604 90.6977V89.3265L96.5462 88.4123V87.0411V85.6698L95.6321 84.7557Z" fill="#392A2A"/>
<path d="M68.6644 75.1569C69.7614 74.4255 73.6923 73.6333 75.5206 73.3286C75.8253 73.6333 76.5262 73.877 76.8918 74.2427C77.2575 74.6084 77.806 74.6998 78.2631 74.6998L79.6343 76.071L80.5485 76.9852V78.3564H78.7201H75.9777H73.6923H72.7781L71.4068 79.2706H70.9498L70.4927 79.7277H69.5785L68.6644 81.0989L66.836 82.4702C66.5313 81.8607 65.9219 80.459 65.9219 79.7277V77.4423C65.9219 76.5281 67.2931 76.071 68.6644 75.1569Z" fill="#392A2A"/>
<path d="M82.3768 76.9852V76.071L83.291 75.614C83.9004 75.4616 85.2107 75.0655 85.5764 74.6998C85.942 74.3341 86.9476 74.5474 87.4047 74.6998L88.7759 75.1569H90.1472L93.3467 76.071L95.6321 78.3564V79.7277V82.4702L95.1751 83.8414H94.2609L93.8038 84.7556L93.3467 83.8414V82.4702L92.4326 81.556L91.9755 80.6418L91.5184 80.1848L91.0613 79.7277H90.1472L88.7759 79.2706H87.8618L86.4905 78.3564H85.1193H83.748H82.3768V76.9852Z" fill="#392A2A"/>
<path d="M75.0632 85.2127L76.4345 84.7556C76.8916 84.908 78.2628 85.2127 80.0911 85.2127H84.6619L86.9473 86.1269V87.4981H86.0332L84.6619 87.9552H83.7478L82.3765 88.4123L80.0911 87.9552H77.8057L76.4345 87.4981V87.041L75.0632 86.1269V85.2127Z" fill="#392A2A"/>
<path d="M53.155 45.0992C53.9168 39.4618 56.3546 27.1816 60.0112 23.1593C64.5821 18.1314 68.6958 16.3031 70.9812 14.4747C73.2666 12.6464 76.9232 9.44685 78.7516 6.70436C80.2142 4.51037 79.361 7.3138 78.7516 8.98977C79.8181 7.61852 82.0425 4.60178 82.4082 3.50479C82.7739 2.40779 82.5606 5.18076 82.4082 6.70436C82.8653 5.63783 83.7795 3.13911 83.7795 1.67645C83.7795 -0.151872 83.7795 0.76228 84.2365 2.13353C84.6022 3.23054 85.3031 5.63784 85.6078 6.70436L86.0649 3.96185C86.8267 5.18073 88.8073 7.98416 90.6357 9.44682C92.9211 11.2751 104.805 17.2172 108.919 24.0734C109.985 24.8352 112.301 26.8159 113.033 28.6442C113.947 30.9296 114.404 32.758 114.861 36.8717C115.227 40.1627 114.709 51.3459 114.404 56.5262C113.337 57.4403 111.204 59.8172 111.204 62.0111V66.582L109.833 67.039C110.138 59.2687 110.564 43.3622 109.833 41.8996C109.102 40.4369 108.919 42.2043 108.919 43.2708V36.8717C108.663 37.4687 108.293 38.3425 108.08 38.8679C108.066 38.9864 108.041 39.0842 108.005 39.1571C107.844 39.4791 107.913 39.2813 108.08 38.8679C108.21 37.7985 107.502 35.0438 107.091 33.6721L106.176 35.9575C106.024 34.4339 105.628 31.1125 105.262 30.0155C104.805 28.6442 98.406 24.9876 95.6636 24.0734C93.4696 23.3421 92.0069 23.1593 91.5498 23.1593L94.2923 24.5305C92.464 24.2258 88.1674 23.7992 85.6078 24.5305C83.0481 25.2618 78.4468 26.9683 76.4662 27.7301L79.6657 25.4447C74.4731 27.7081 64.673 32.1589 62.0395 33.9777C61.5399 34.719 61.2003 35.1327 61.3825 34.5863C61.4286 34.4479 61.6594 34.2402 62.0395 33.9777C62.543 33.2308 63.2091 32.1514 63.6679 31.3867C61.8396 32.9103 58.0001 37.5116 57.2688 43.7279C56.5374 49.9442 56.3546 60.9446 56.3546 65.6678L54.9833 63.3824V57.4403C54.9833 56.5262 54.5263 53.3266 53.155 53.3266C52.058 53.3266 52.6979 47.8417 53.155 45.0992Z" fill="#392A2A"/>
<path d="M110.679 126.001L94.0428 136.06H90.9478C96.1061 132.32 106.732 124.299 107.97 122.132C109.518 119.424 104.875 101.628 106.423 101.628C107.661 101.628 116.74 110.139 121.124 114.395C122.027 116.974 124.142 122.906 125.38 126.001C126.618 129.096 125.896 140.703 125.38 146.119C125.251 145.216 124.529 142.327 122.672 137.994C120.815 133.661 113.903 128.194 110.679 126.001Z" fill="#95D2C4"/>
<path d="M61.0669 129.483L65.3225 131.804L84.3699 135.286C79.2115 131.546 65.013 127.781 63.775 125.614C62.2275 122.906 66.87 105.11 65.3225 105.11C64.0845 105.11 55.0058 113.621 50.6212 117.877C49.7184 120.456 47.6035 126.388 46.3655 129.483C45.1275 132.578 45.8497 144.184 46.3655 149.601C46.4945 148.698 47.2166 145.809 49.0736 141.476C50.9307 137.143 57.8429 131.675 61.0669 129.483Z" fill="#95D2C4"/>
<path d="M112.226 26.9603H57.6758L56.5151 29.6685L55.3545 33.1504H114.547C114.547 31.6029 112.999 28.3789 112.226 26.9603Z" fill="white"/>
<circle cx="90.5603" cy="30.0554" r="14.7014" fill="white"/>
<circle cx="90.5595" cy="30.0554" r="11.6064" fill="#C4C4C4" fill-opacity="0.3"/>
<circle cx="90.9466" cy="30.4422" r="4.25566" fill="#C4C4C4"/>
<path d="M41.7279 219.239C44.5134 216.144 46.7573 215.628 47.531 215.757C54.0305 214.519 60.556 216.273 63.0063 217.305C78.6104 217.949 110.979 219.239 115.622 219.239C121.425 219.239 134.192 203.764 136.126 198.734C138.061 193.705 140.382 184.807 142.703 182.485C145.025 180.164 152.375 173.974 156.631 173.974C158.178 174.284 157.018 176.424 156.244 177.456C158.049 176.682 162.047 175.057 163.595 174.748C165.529 174.361 166.69 174.748 167.85 176.295C168.779 177.533 168.237 178.617 167.85 179.003C168.495 179.132 169.94 179.545 170.559 180.164C171.332 180.938 170.559 182.485 170.559 183.646C170.559 184.575 168.753 185.838 167.85 186.354C167.979 186.87 168.16 188.211 167.85 189.449C167.464 190.997 164.368 192.157 161.66 193.318C158.952 194.479 158.565 196.026 157.405 198.734C156.244 201.442 139.221 235.488 138.061 238.583C136.9 241.678 133.031 241.291 128.389 243.999C123.746 246.707 86.9928 254.058 78.8683 255.605C70.7439 257.153 54.495 255.605 52.5606 255.605C50.6262 255.605 38.633 252.897 37.0855 252.897C35.538 252.897 31.2821 253.284 27.8004 254.058C24.3186 254.832 20.8364 251.35 19.2889 249.415C17.7413 247.481 19.2889 246.707 19.2889 245.16C19.2889 243.612 22.083 238.621 22.083 236.648C22.083 232.78 29.3478 231.232 31.2821 230.071C33.2165 228.911 38.246 223.108 41.7279 219.239Z" fill="#E3AB8B"/>
<path d="M178.423 222.204C182.252 224.655 184.573 229.298 183.799 232.78C183.026 236.262 177.959 237.912 176.102 238.84C173.781 240.001 164.495 240.388 160.24 240.388C155.984 240.388 153.663 242.709 149.02 242.709C146.204 242.709 131.998 240.775 129.676 240.388C127.355 240.001 113.428 232.65 111.88 232.263C110.333 231.876 103.756 230.716 100.274 229.555C96.7918 228.395 88.2804 224.526 86.7329 224.139C85.4949 223.829 75.6424 221.173 70.8709 219.883C67.7759 218.852 61.3137 218.31 60.3851 217.691C59.4566 217.072 53.6793 215.886 51.1001 215.757C50.5842 214.338 49.7473 209.592 48.8188 205.569C47.8903 201.545 48.432 197.702 48.8188 196.284H52.3007C53.7193 196.799 56.9433 197.831 58.4908 197.831H65.4546C68.2401 197.831 77.9637 198.605 82.4773 198.992C88.2804 199.25 100.893 199.998 104.916 200.926C109.946 202.087 122.326 199.766 126.968 199.766C131.611 199.766 140.509 196.284 145.925 195.123C151.342 193.962 161.807 197.104 162.908 197.961C165.229 199.766 168.324 206.085 168.711 207.633C169.098 209.18 176.073 220.701 178.423 222.204Z" fill="#F1BD9F"/>
</svg>
