<svg width="183" height="318" viewBox="0 0 183 318" fill="none" xmlns="http://www.w3.org/2000/svg">
<path d="M75.9142 98.654L80.5567 97.4934C93.5816 97.4934 120.173 97.7255 122.34 98.654C125.048 99.8147 127.756 107.165 129.303 109.487C130.851 111.808 137.428 113.355 138.588 114.903C139.749 116.45 145.552 118.385 147.487 119.545C149.421 120.706 152.903 121.867 155.224 121.867C157.546 121.867 161.801 125.349 165.67 127.283C168.765 128.831 171.086 131.539 171.86 132.699C163.349 142.887 145.862 163.959 144.005 166.745C141.683 170.227 140.91 180.672 140.523 183.767C140.136 186.862 136.267 196.534 136.267 199.629C136.267 202.724 152.903 242.96 152.903 245.668C152.903 248.376 151.742 249.923 150.582 250.697C149.421 251.471 149.808 256.114 149.421 256.887C149.034 257.661 150.582 263.851 150.582 266.172C150.582 268.494 150.195 267.72 150.582 270.428C150.969 273.136 153.29 279.713 152.903 282.808C152.516 285.903 153.677 288.224 155.998 290.546C157.855 292.403 160.383 309.116 161.414 317.24H23.2986C22.5249 313.758 27.1674 302.539 28.328 299.831C29.4887 297.123 37.2263 274.297 37.2263 271.976C37.2263 269.654 35.2919 260.756 35.2919 256.887C35.2919 253.019 36.0657 233.675 37.2263 232.127C38.3868 230.58 44.9638 209.301 44.9638 207.754C44.9638 206.206 46.8982 199.242 48.0588 197.308C49.2195 195.374 50.767 187.636 49.9932 183.767C49.2195 179.899 47.672 173.322 46.8982 168.679C46.1245 164.036 45.3507 157.073 44.9638 153.978C44.5769 150.883 36.0657 139.663 34.1313 135.794C32.1969 131.926 27.5544 125.736 28.715 125.349C29.8757 124.962 34.5182 122.641 36.0657 121.867C37.6132 121.093 39.5476 120.706 41.0951 119.545C42.6426 118.385 48.4458 117.611 50.3802 117.224C52.3146 116.837 56.1834 114.129 58.1178 113.355C60.0522 112.582 64.3078 114.516 65.4685 109.487C66.397 105.463 72.8192 100.588 75.9142 98.654Z" fill="#FBF2EC"/>
<path d="M123.415 111.808C123.415 109.641 122.383 101.878 121.867 98.2671C131.539 104.457 131.539 109.487 134.247 116.063C136.414 121.325 128.444 146.369 124.188 158.233C124.188 157.975 124.034 156.918 123.415 154.751C123.054 153.491 120.102 148.722 117.162 145.41C114.475 152.626 111.808 163.083 111.808 169.84C111.808 178.351 107.552 225.937 107.552 230.58C107.552 235.222 104.844 256.5 104.844 271.976C104.844 284.356 103.297 307.053 102.523 316.853H92.8511C93.7538 312.34 95.5593 302.229 95.5593 297.896C95.5593 292.48 97.1068 281.261 95.5593 271.976C94.0117 262.69 102.136 189.957 102.523 182.993C102.833 177.422 106.005 156.944 107.552 147.401L111.808 142.371C114.774 136.697 121.248 124.111 121.867 122.254C122.641 119.932 123.415 114.516 123.415 111.808Z" fill="#FFF8F2"/>
<path d="M24.7603 128.831C25.0698 126.974 29.0159 124.188 31.3372 124.188C33.0136 126.251 35.7476 130.455 36.3666 132.312C37.1403 134.634 46.8123 146.627 46.8123 150.109C46.8123 153.591 49.5204 166.358 49.5204 169.066C49.5204 171.774 53.3892 182.994 53.3892 184.928C53.3892 186.862 51.0679 196.147 49.5204 200.403C48.2824 203.808 46.1675 212.396 45.2648 216.265C41.5249 216.394 33.3489 216.575 30.5635 216.265C27.0817 215.878 21.2783 220.908 19.3439 222.455C17.4095 224.003 10.059 231.353 8.8982 232.901C7.97235 234.135 9.26195 240.046 9.82183 241.799C9.97435 241.932 10.059 242.061 10.059 242.186C10.059 242.421 9.96389 242.244 9.82183 241.799C8.55287 240.689 2.58362 239.27 1.54751 237.543C0.386878 235.609 0 229.806 0 229.032C0 228.258 1.54751 222.455 1.54751 219.36C1.54751 216.884 3.35295 214.975 4.25566 214.331C4.51358 210.462 5.10679 202.26 5.4163 200.403C5.80318 198.082 8.8982 193.826 10.059 192.665C11.2197 191.505 13.154 184.541 13.154 182.994C13.154 181.446 11.2196 177.964 10.059 176.803C8.89833 175.643 10.059 170.613 10.059 169.066C10.059 167.518 11.9934 165.971 13.154 164.81C14.3146 163.65 14.7015 156.299 14.7015 154.365C14.7015 152.43 18.1834 146.24 18.1834 143.919C18.1834 141.598 22.826 136.955 23.5997 135.794C24.3735 134.634 24.3735 131.152 24.7603 128.831Z" fill="#FFF4EC"/>
<path d="M26.0581 215.573C26.9375 214.724 37.9049 215.219 43.2788 215.573C48.0419 216.399 57.9346 218.051 59.4002 218.051C61.2322 218.051 85.048 225.128 86.5136 225.836C87.686 226.402 117.535 235.273 132.313 239.637C123.397 242.35 104.76 247.989 101.536 248.838C97.5055 249.9 69.6593 253.792 65.629 253.792C61.5986 253.792 37.05 252.023 33.7524 250.961C30.4549 249.9 27.1573 250.607 24.2261 250.961C21.295 251.315 13.967 250.961 11.7686 249.546C9.57026 248.13 9.93666 242.822 9.93666 240.699C9.93666 238.575 7.73828 234.683 7.73828 232.913C7.73828 231.144 9.57026 230.082 9.93666 229.375C10.3031 228.667 24.9589 216.635 26.0581 215.573Z" fill="#E7C2BA"/>
<path d="M51.8411 189.184C51.5316 190.422 49.133 199.242 47.9723 203.498C47.5854 205.303 47.1984 209.224 48.746 210.462C50.6803 212.009 56.4835 208.141 54.5491 204.272C52.6147 200.403 52.2279 197.695 53.3885 196.921C54.5491 196.147 58.4179 193.826 58.4179 192.665C58.4179 191.505 59.1917 191.892 57.2573 191.892C55.3229 191.892 54.1623 191.892 54.1623 189.957C54.1623 188.023 53.7754 186.475 54.5491 185.315C55.3229 184.154 56.0966 182.607 57.2573 181.833C58.4179 181.059 70.0243 177.964 68.4768 177.964C66.9292 177.964 62.6736 179.125 61.5129 179.512L61.5129 179.512C60.3523 179.898 55.7098 181.446 54.1623 180.672C52.6147 179.898 52.3481 176.014 52.6149 173.708C53.0016 170.365 57.2573 170.613 58.8048 169.84C60.3523 169.066 57.2573 168.679 55.7098 169.066C54.1623 169.453 51.8411 171.774 51.0672 169.84C50.2933 167.905 49.5198 159.781 48.746 158.233C48.1269 156.995 47.7143 154.107 47.5854 152.817C47.4565 153.849 47.2759 156.299 47.5854 157.846C47.9723 159.781 49.133 169.066 49.5198 170.613C49.9067 172.161 51.0673 181.833 51.8411 183.38C52.6149 184.928 52.228 187.636 51.8411 189.184Z" fill="#F3EBE5"/>
<path d="M42.9433 177.577C45.1098 177.577 49.5202 178.609 51.4546 179.125L53.3888 183.767V192.279L52.2283 199.629C51.8414 201.822 50.9128 206.284 50.2939 206.593C49.5202 206.98 46.425 213.557 44.1038 213.17C41.7825 212.783 42.1694 212.009 41.3958 211.236C40.6222 210.462 35.5924 209.688 34.8187 209.688H40.235C41.7825 209.688 42.9433 210.075 44.1038 210.462C45.2642 210.849 46.8119 206.593 46.425 205.433C46.0381 204.272 41.3958 203.885 39.4613 203.885C37.5268 203.885 30.95 203.498 32.4975 203.111C34.045 202.724 47.1989 202.724 49.5201 202.724C51.8414 202.724 50.2939 199.629 50.2939 198.469C50.2939 197.308 43.717 196.147 42.9433 194.987C42.1696 193.826 44.1038 194.6 44.8776 194.987C45.6514 195.374 50.6808 197.308 51.4546 196.147C52.2285 194.987 51.4546 189.184 50.2939 188.023C49.1332 186.862 41.3958 186.089 41.3958 185.315C41.3958 184.541 51.4546 186.089 52.2283 186.089C53.002 186.089 51.4546 181.833 50.2939 181.446C49.1332 181.059 43.717 179.125 41.3958 179.125C39.0745 179.125 40.2351 177.577 42.9433 177.577Z" fill="#F3EBE5"/>
<path d="M10.0639 192.362C13.3184 191.577 20.5262 189.954 23.3211 189.745C26.8148 189.485 30.695 189.238 28.7339 189.941C26.7728 190.644 11.2237 192.404 10.0359 193.135C9.40229 193.525 8.72107 194.281 8.21587 194.928L7.61808 195.758C7.75472 195.548 7.9633 195.251 8.21587 194.928L10.0639 192.362Z" fill="#F3EBE5"/>
<path d="M29.1952 299.119C32.9123 297.386 41.1407 293.789 44.3172 293.264C48.2877 292.607 52.6961 291.967 50.4485 293.486C48.2008 295.005 30.509 299.167 29.1373 300.718C28.4056 301.545 27.6076 303.129 27.0129 304.482L26.3069 306.217C26.469 305.779 26.7155 305.159 27.0129 304.482L29.1952 299.119Z" fill="#EDE6E1"/>
<path d="M52.6146 272.749C49.4382 272.224 39.2805 274.445 37.1393 271.589L35.9786 263.851C36.4648 265.168 37.3478 267.912 38.3 269.268C40.886 272.949 55.0094 270.07 57.2571 271.589C59.5047 273.108 56.5851 273.406 52.6146 272.749Z" fill="#EDE6E1"/>
<path d="M138.283 291.625C141.198 290.259 151.578 288.846 152.865 285.516L152.865 281.647L152.865 280.1L152.43 277.779C152.319 279.178 151.667 282.832 151.118 284.395C149.626 288.639 135.251 289.695 133.499 291.766C131.748 293.838 134.639 293.333 138.283 291.625Z" fill="#EDE6E1"/>
<path d="M19.541 178.703C18.3582 179.019 14.5451 181.987 13.1533 182.981L12.7665 185.315C12.9559 184.575 13.8981 183.683 14.3139 182.981C14.8338 182.105 20.9709 179.651 21.8157 178.786C22.6605 177.921 21.0195 178.309 19.541 178.703Z" fill="#F3EBE5"/>
<path d="M4.67605 213.843C6.7687 213.267 11.403 212.076 13.1987 211.917C15.4434 211.719 17.9364 211.53 16.6748 212.043C15.4131 212.556 5.42091 213.87 4.65584 214.401C4.23226 214.695 3.5894 215.071 3.14576 215.426L2.70876 215.878C2.7904 215.738 2.94836 215.584 3.14576 215.426L4.67605 213.843Z" fill="#F3EBE5"/>
<path d="M14.2458 163.411C17.5434 162.652 24.8398 161.106 27.6449 160.984C31.1512 160.832 35.0431 160.712 33.0428 161.43C31.0425 162.148 15.4025 163.506 14.1733 164.288C13.4959 164.719 12.3779 165.574 11.6022 166.293L10.8326 167.131C10.9714 166.914 11.2519 166.617 11.6022 166.293L14.2458 163.411Z" fill="#F3EBE5"/>
<path d="M174.095 156.299C174.404 155.061 175.642 135.407 171.774 132.312C163.229 125.477 166.512 135.717 165.584 136.955C164.423 138.502 146.24 153.59 145.079 157.459C144.151 160.554 138.373 186.346 134.633 198.855L147.013 201.176C149.335 201.821 154.209 203.343 155.138 204.271C156.298 205.432 160.941 215.878 160.941 217.812C160.941 219.747 165.97 221.681 168.679 222.455C171.387 223.229 171 224.389 172.161 225.55C173.321 226.71 172.161 228.258 174.095 229.419C176.029 230.579 174.095 232.127 172.161 234.061C170.613 235.609 169.71 239.348 169.452 241.025C169.968 240.251 171.619 238.704 174.095 238.704C177.19 238.704 175.256 236.382 177.577 232.127C179.124 231.353 182.606 224.002 182.606 222.842C182.606 221.681 181.446 214.717 180.285 213.17C179.124 211.622 182.606 204.658 182.606 203.111C182.606 201.563 180.285 199.242 180.285 196.534V184.928C180.285 183.767 177.577 182.606 177.577 180.285V166.744C177.577 164.81 175.256 161.328 174.095 160.554C172.934 159.78 173.708 157.846 174.095 156.299Z" fill="#F9F1EB"/>
<path d="M65.3823 111.034C65.3823 116.064 77.3757 140.824 85.8869 159.007C85.8869 159.007 88.9823 153.204 93.6246 147.788C98.267 142.371 106.391 147.401 106.391 147.401C97.4932 133.473 77.3757 106.328 77.3757 103.683C77.3757 100.588 80.4706 96.9775 81.2443 95.9459C80.8575 96.0748 77.1436 97.9576 76.2151 98.2671C75.0545 98.654 72.3463 101.362 71.1857 102.136C70.0251 102.91 68.8644 104.844 67.7038 105.618C66.5431 106.392 65.3824 107.915 65.3823 111.034Z" fill="#FFFAF7"/>
<path d="M80.2858 20.688L106.961 10.1141H111.56C117.079 14.0985 128.209 22.2511 128.577 22.9866C129.037 23.9061 133.176 41.8357 133.636 43.6746C134.096 45.5135 136.855 49.6511 137.315 53.329C137.683 56.2712 134.096 66.8144 132.256 71.7182L122.598 84.5907C116.006 87.3491 102.546 92.8659 101.442 92.8659C100.338 92.8659 85.3449 82.4453 77.9863 77.235C74.9202 71.8715 68.6041 60.2249 67.8682 56.5471C67.1324 52.8692 67.5616 46.433 67.8682 43.6746L71.0876 39.0773C71.8541 36.4721 73.6631 31.0779 74.7669 30.3424C75.8707 29.6068 78.9061 23.5996 80.2858 20.688Z" fill="#E4C2BB"/>
<path d="M120.882 19.0496C119.024 18.5872 99.7039 19.9744 96.7315 21.8239C93.0161 24.1358 86.3518 31.3559 85.8874 35.9797C85.5158 39.6787 84.9659 39.5483 85.1207 38.9318C84.9271 37.2935 84.6851 34.4863 84.7126 32.2507C83.7012 36.9369 81.5716 45.2395 80.9408 45.8674C80.012 46.7922 81.8697 39.3942 81.8697 37.5447C81.8697 35.6952 73.5099 50.9536 73.0455 52.3407C72.674 53.4504 74.4388 46.6381 75.3677 43.0932L69.7945 56.0397C69.33 54.3444 68.4012 50.5837 68.4012 49.1041C68.4012 47.6245 67.1627 50.6453 66.5435 52.3407V40.7813C66.5435 38.192 67.7819 35.6952 68.4012 34.7704C68.2464 33.3833 68.1225 30.2391 68.8656 28.7595C69.6087 27.2799 67.9368 29.6843 67.0079 31.0714C68.8656 24.5981 74.4388 10.8193 81.8697 7.4902C90.0684 3.81711 94.6488 1.22471 96.5689 0.666906C95.4456 0.770694 93.413 0.92265 92.0872 1.01693C94.4094 0.554556 99.7968 -0.277722 102.769 0.0921793C106.485 0.554556 122.275 6.56544 123.669 7.95257C125.062 9.3397 126.92 10.2645 127.848 11.6516C128.777 13.0387 132.028 23.211 133.886 25.9853C135.744 28.7595 136.673 42.6308 137.137 45.8674C137.509 48.4568 137.292 51.2618 137.137 52.3407L135.744 49.1041L135.279 56.9645L133.886 54.6526V60.2011C133.886 61.6807 133.267 62.6671 132.957 62.9754L132.028 61.5882L130.171 64.3625V50.4912L128.777 53.7278C129.242 49.2582 130.171 40.0415 130.171 38.9318C130.171 37.8221 129.242 40.6272 128.777 42.1684C128.468 38.3153 127.848 30.4241 127.848 29.6843C127.848 28.9445 122.585 30.9173 119.953 31.9961C121.966 30.9173 126.084 28.4821 126.455 27.3724C126.827 26.2627 124.752 26.91 123.669 27.3724L125.062 24.5981C125.526 23.6734 117.167 25.0605 116.238 26.91C115.309 28.7595 117.631 23.6734 119.953 21.8239C121.811 20.3443 123.204 20.2826 123.669 20.4367C123.669 20.4367 122.74 19.512 120.882 19.0496Z" fill="#6D4134"/>
<path d="M79.4164 97.0794C80.8875 94.4825 80.0293 90.1235 79.4164 88.2686L90.9097 90.5872L120.792 92.9059L122.631 102.18L123.551 109.6L122.631 123.048L112.057 141.597C112.057 141.597 109.487 145.853 108.713 146.627C107.94 147.401 106.779 148.174 105.618 146.24C104.458 144.306 76.658 104.035 76.658 104.035C76.9644 102.799 77.9452 99.6763 79.4164 97.0794Z" fill="#E4C2BB"/>
<path d="M69.6598 60.516L68.3821 51.6627C68.6907 48.7605 69.4006 42.8644 69.7709 42.4978C70.1413 42.1312 73.9374 42.3451 75.7892 42.4978C75.4806 43.7198 74.8633 46.3471 74.8633 47.0803C74.8633 47.9968 74.8633 49.8297 74.4004 51.2045C73.9374 52.5792 74.8633 53.9539 74.8633 55.3287C74.8633 56.7034 75.7892 57.6199 75.7892 58.5364C75.7892 59.4528 76.7151 63.1188 77.1781 64.4935C77.641 65.8683 79.0299 66.7847 79.0299 67.7012C79.0299 68.6177 80.4187 70.9089 80.4187 71.3672C80.4187 71.7338 82.5791 72.7419 83.6593 73.2002H86.437C86.9 72.4364 87.9184 70.7256 88.2888 69.9925C88.7518 69.076 89.2147 69.076 90.1406 68.6177C91.0665 68.1595 92.4553 67.7012 92.9183 67.7012C93.3812 67.7012 94.7701 66.7847 95.696 66.7847C96.6219 66.7847 97.5477 65.41 98.4736 65.41C99.3995 65.41 101.812 65.4584 102.64 65.8683C103.566 66.3265 103.103 66.7847 104.492 66.7847C105.881 66.7847 106.538 66.5928 107.27 65.8683C108.196 64.9518 109.584 65.41 110.973 65.41C112.362 65.41 112.825 66.7847 113.751 66.7847C114.677 66.7847 116.066 67.7012 116.992 67.7012C117.732 67.7012 119.461 70.7562 120.232 72.2837C121.004 72.5892 122.639 73.2002 123.01 73.2002C123.473 73.2002 124.399 72.7419 124.862 72.2837C125.325 71.8254 125.325 69.9925 125.788 69.9925C126.25 69.9925 128.102 67.7012 128.565 66.7847C128.936 66.0516 129.028 64.0353 129.028 63.1188L132.269 61.2858L134.584 64.0353V67.7012V74.5749C134.584 75.9496 133.195 77.3244 133.195 77.7826C133.195 78.2408 131.806 82.365 131.343 82.8233C130.88 83.2815 129.028 86.9475 129.028 87.4057C129.028 87.864 127.639 92.4464 127.176 92.4464C126.713 92.4464 124.399 95.6541 123.936 96.1124C123.473 96.5706 118.38 98.4036 116.992 99.3201C115.603 100.237 115.14 101.153 113.751 101.153C112.362 101.153 110.51 102.07 109.584 102.07C108.658 102.07 104.955 103.903 104.492 103.903C104.029 103.903 102.177 104.819 100.788 104.819C99.3995 104.819 96.6219 103.903 95.696 103.903C94.9552 103.903 91.6838 102.681 90.1406 102.07C89.2147 101.611 87.0851 100.42 85.9741 99.3201C84.5852 97.9453 83.6593 98.4036 83.1964 97.4871C82.7334 96.5706 80.4187 95.1959 80.4187 94.7376C80.4187 94.2794 79.0299 93.8211 77.641 92.4464C76.2522 91.0717 75.3263 89.6969 74.8633 88.3222C74.4004 86.9475 73.9374 86.4892 73.9374 85.1145C73.9374 83.7398 73.9374 82.8233 73.4745 81.4486C73.0116 80.0738 73.0116 78.2408 73.0116 77.3244C73.0116 76.4079 72.0857 74.5749 72.0857 73.2002C72.0857 72.1004 71.1598 70.6034 70.6968 69.9925V66.3265V59.4528L69.6598 60.516Z" fill="#6D4134"/>
<path d="M140.436 159.781C140.746 158.543 143.144 152.559 144.305 149.722L144.305 148.174L141.597 147.787C140.565 151.14 138.347 158.233 137.728 159.781C136.954 161.715 135.02 171 134.633 174.869C134.246 178.738 134.633 184.541 134.246 187.249C133.859 189.957 131.925 193.439 131.151 194.213C130.377 194.987 127.669 197.308 124.574 197.308C122.098 197.308 116.579 194.729 114.128 193.439C113.226 193.826 111.73 194.755 112.968 195.374C114.515 196.147 122.253 199.629 123.8 200.016C125.348 200.403 129.217 198.469 131.151 197.308C133.085 196.147 135.02 192.665 135.794 190.731C136.567 188.797 136.954 181.833 136.954 176.803C136.954 171.774 140.049 161.328 140.436 159.781Z" fill="#B3B2B2"/>
<path d="M146.24 140.437C146.24 142.603 145.466 146.498 145.079 148.174C144.563 148.174 143.145 147.71 141.597 145.853C142.371 142.758 141.984 136.568 141.597 135.02C141.21 133.473 137.341 124.575 136.181 121.093C135.252 118.307 129.346 111.937 126.509 109.1V104.457L134.633 112.581C135.794 113.742 141.984 127.67 143.531 131.152C145.079 134.634 146.24 137.729 146.24 140.437Z" fill="#4B658D"/>
<path d="M113.49 195.371L114.651 193.824C115.037 193.437 113.464 192.569 112.845 191.95C112.072 191.177 110.911 190.403 110.137 190.016C109.363 189.629 108.531 191.25 108.203 191.95C107.687 193.05 107.042 193.498 108.203 194.272C109.131 194.891 112.845 196.532 113.49 195.371Z" fill="#3F3D3D"/>
<path d="M140.545 145.853C140.653 145.466 141.21 144.692 142.092 145.079C142.974 145.466 143.748 145.466 144.414 145.853C145.079 146.24 145.265 146.782 145.574 147.401C145.884 148.02 144.929 149.464 144.414 150.109C143.898 150.754 140.436 149.335 140.05 148.561C139.663 147.787 140.437 146.24 140.545 145.853Z" fill="#5E5E5E"/>
<path d="M116.45 156.686C116.45 154.829 115.418 149.464 114.903 147.014L117.611 145.853C117.869 147.401 118.539 151.347 119.158 154.751C119.932 159.007 119.932 168.292 119.932 171C119.932 173.708 120.706 187.249 120.706 189.184C120.706 191.118 121.866 194.213 123.801 196.147C125.735 198.082 131.151 198.082 132.699 198.082C133.937 198.082 136.826 196.792 138.115 196.147V198.082C137.084 198.727 134.556 200.016 132.699 200.016C130.378 200.016 126.896 200.016 124.188 199.242C121.48 198.469 119.158 195.374 118.384 192.665C117.611 189.957 117.224 177.964 117.224 177.19C117.224 176.417 116.45 159.007 116.45 156.686Z" fill="#C6C3C3"/>
<path d="M128.057 116.45C129.604 113.665 128.186 106.52 127.283 103.296L123.801 99.8146L124.962 102.136V105.231C124.962 107.939 126.122 111.421 124.962 114.903C124.472 116.371 122.641 121.093 120.706 123.414C118.449 126.122 114.903 135.021 114.129 138.116C113.51 140.592 113.871 144.306 114.129 145.853L117.611 145.079C117.353 142.887 116.992 137.961 117.611 135.794C118.385 133.086 120.706 128.057 122.254 126.509C123.801 124.962 126.122 119.932 128.057 116.45Z" fill="#43597A"/>
<path d="M113.922 146.559C113.597 145.575 113.787 145.057 113.922 144.92C114.598 144.783 116.113 144.428 116.762 144.101C117.574 143.691 117.574 144.101 117.979 144.101C118.385 144.101 118.385 145.739 118.385 146.149C118.385 146.477 118.115 146.832 117.979 146.968L115.139 147.787C114.869 147.787 114.247 147.542 113.922 146.559Z" fill="#5D5D5D"/>
<path d="M70.0249 104.844C70.8527 103.07 74.4096 100.201 76.215 99.4277L74.6675 103.297C73.6358 105.876 70.9036 111.775 70.0249 115.29C68.8643 119.932 68.9933 131.152 68.8643 136.955C68.8643 144.95 67.7037 159.394 66.9299 165.584C66.4806 169.179 66.9299 177.577 68.0905 182.993H64.6086C64.2218 179.254 63.448 171.232 63.448 169.066C63.448 166.358 65.3824 139.663 65.3824 136.955C65.3824 134.247 65.5912 123.407 65.7693 121.093C66.1561 116.064 67.3168 110.647 70.0249 104.844Z" fill="#526A8E"/>
<path d="M72.7343 119.159C72.7343 115.135 74.6687 105.618 76.2163 103.683C77.7638 101.749 78.9244 100.975 79.3113 100.202C79.6982 99.4278 80.4719 95.9459 80.4719 95.9459C78.7954 96.7196 75.2104 98.9635 74.2819 100.202C73.1212 101.749 71.4722 106.36 70.8 108.713C69.2524 114.129 69.2524 123.801 69.2524 126.509V160.168V181.833H72.7343V161.328V119.159Z" fill="#667EA3"/>
<path d="M64.3744 182.993C64.3744 182.374 64.2455 180.801 64.3744 179.898L67.4695 179.125L68.2433 180.285L69.0171 179.898L69.7908 177.964H72.499C72.7569 178.351 73.2727 179.202 73.2727 179.512V181.833C73.2727 182.142 72.7569 182.736 72.499 182.993C73.2727 183.251 75.2071 183.999 76.7546 184.928C78.689 186.088 79.0759 188.797 79.4628 190.344C79.8497 191.892 79.4628 194.213 77.5284 197.308C75.594 200.403 71.5733 200.492 68.2433 200.016C65.5352 199.629 63.6007 196.921 62.8269 195.76C62.0531 194.6 61.6663 191.892 62.0531 188.797C62.44 185.702 65.1482 185.315 65.1482 184.541C65.1482 183.767 64.3744 183.767 64.3744 182.993Z" fill="#C6C3C3"/>
<path d="M76.6025 195.044C75.7263 197.367 74.2362 198.199 72.7922 198.777C71.3483 199.355 69.5724 199.335 68.8649 199.253" stroke="#B4AEAE" stroke-width="2" stroke-linecap="round" stroke-linejoin="round"/>
<path d="M66.2998 191.173C65.7578 191.422 65.7705 191.727 65.7705 192.003C65.7704 192.417 66.2996 192.665 66.5707 192.665C67.1127 192.665 67.4619 192.143 67.2603 191.727C67.1298 191.457 66.7845 190.951 66.2998 191.173Z" stroke="#ACA4A4" stroke-width="2" stroke-linecap="round" stroke-linejoin="round"/>
<path d="M66.6043 188.271C64.1655 189.39 64.2228 190.762 64.2228 192.007C64.2223 193.867 66.6037 194.987 67.8237 194.987C70.2624 194.987 71.8337 192.636 70.9266 190.762C70.3395 189.549 68.7856 187.269 66.6043 188.271Z" stroke="#CCCCCC" stroke-width="3" stroke-linecap="round" stroke-linejoin="round"/>
<path d="M66.5442 190.344C65.7704 190.731 65.7886 191.205 65.7886 191.636C65.7884 192.279 66.544 192.665 66.9311 192.665C67.7049 192.665 68.2034 191.853 67.9156 191.205C67.7294 190.786 67.2363 189.998 66.5442 190.344Z" stroke="#BAB8B8" stroke-width="2" stroke-linecap="round" stroke-linejoin="round"/>
<path d="M176.072 231.353L170.269 240.252C170.011 241.283 169.263 243.347 168.335 243.347C167.174 243.347 164.466 246.055 163.305 246.055C162.145 246.055 159.05 245.281 157.115 245.281C155.181 245.281 147.056 245.668 142.801 246.055C138.545 246.442 121.48 244.12 116.064 242.96C110.647 241.799 100.589 237.156 95.946 235.222C92.8739 233.942 83.9528 230.193 80.084 228.258C77.1478 226.79 66.5857 222.842 65.4251 222.455C64.2645 222.068 58.4188 220.134 56.8713 219.747C55.6333 219.437 47.2417 217.039 42.5991 215.491C42.7281 214.847 42.5991 214.331 42.5991 211.623C42.5991 208.914 44.4915 206.593 45.652 205.046C46.8125 203.498 48.1702 202.724 50.3367 202.724C53.0448 202.724 59.2349 202.337 61.1693 201.177C63.1037 200.016 73.1625 201.177 75.8707 201.177C78.5788 201.177 89.4114 203.498 93.6671 204.272C97.9227 205.046 113.011 205.046 114.559 205.046C116.106 205.046 130.421 202.724 132.355 201.177C133.902 199.939 135.923 197.437 137.729 196.921L147.056 198.082L155.181 201.177C157.373 205.69 161.835 214.95 162.145 215.878C162.454 216.807 167.174 218.07 169.495 218.586L176.072 227.098V231.353Z" fill="#F5CFC6"/>
<path d="M136.181 187.249C134.634 190.035 131.41 197.953 129.991 201.951C135.794 202.337 145.466 202.724 147.788 202.337C150.013 201.967 152.43 200.403 153.204 199.242C153.978 198.082 159.007 193.826 160.941 192.279C161.796 191.595 161.328 189.184 162.489 188.797C163.65 188.41 164.81 187.636 166.358 186.475C167.905 185.315 165.971 182.607 165.584 182.22C165.197 181.833 164.037 181.833 164.423 181.446C164.81 181.059 163.65 178.351 162.489 177.964C161.56 177.655 157.46 178.093 155.525 178.351C155.267 177.964 154.442 177.19 153.204 177.19C151.656 177.19 147.401 178.351 145.466 179.125C143.532 179.898 138.116 183.767 136.181 187.249Z" fill="#E7C2BA"/>
</svg>
