<svg width="133" height="446" viewBox="0 0 133 446" fill="none" xmlns="http://www.w3.org/2000/svg">
<path d="M82.9386 408.723C82.9386 407.28 78.1306 404.516 75.7265 403.314L60.7014 406.92C60.1004 408.122 58.8383 410.886 58.5979 412.329C58.2974 414.132 59.4994 418.639 61.9034 423.748C64.3074 428.856 66.7115 428.255 69.7165 430.058C72.7215 431.861 87.4462 431.861 91.6532 431.861H98.2643C100.067 431.861 107.279 428.856 108.181 428.255C109.082 427.654 109.683 424.048 109.683 422.846C109.683 421.644 107.88 419.841 106.077 418.639C104.274 417.437 94.3577 417.437 93.4562 417.137C92.5547 416.836 87.7467 415.033 86.5446 413.23C85.3426 411.427 82.9386 410.526 82.9386 408.723Z" fill="black"/>
<path d="M35.1582 428.255C35.3986 427.294 37.0614 423.047 37.8628 421.043L62.2035 414.432H67.9131C69.0149 417.237 71.7595 423.327 73.9231 425.25C76.6277 427.654 85.0417 428.255 88.9483 428.255C92.8548 428.255 95.8598 431.861 96.7613 432.763C97.6629 433.664 97.9634 437.571 96.7613 439.674C95.5593 441.778 71.2186 445.985 68.8146 445.985C66.4105 445.985 52.5874 442.98 50.4839 442.98C48.3804 442.98 33.9562 442.679 33.6557 440.876C33.3552 439.073 34.8577 429.457 35.1582 428.255Z" fill="#0A0909"/>
<path d="M28.2475 304.148C26.8051 297.897 22.8384 245.449 21.0354 220.007L69.7169 207.386L111.186 209.189C111.887 213.296 113.29 221.87 113.29 223.312C113.29 225.115 111.787 248.855 111.186 253.062C110.705 256.428 93.9574 295.132 85.6435 314.064C84.9424 314.966 83.6001 317.73 83.8405 321.577C84.141 326.385 81.737 333.597 81.136 334.498C80.535 335.4 79.934 336.902 79.333 340.508C78.732 344.114 70.9189 378.372 70.3179 380.475C69.7169 382.579 73.0224 385.283 74.5249 387.988C76.0274 390.692 76.0274 393.096 76.0274 393.697C76.0274 394.298 73.0224 397.303 73.0224 398.205C73.0224 398.926 75.8271 402.312 77.2294 403.915C74.1243 405.517 67.7336 408.723 67.0123 408.723C66.1108 408.723 68.8154 414.132 69.1159 415.935C69.4164 417.738 65.5098 415.935 63.4063 415.935C61.3028 415.935 36.9621 424.048 36.9621 423.147V419.541C36.9621 418.038 35.76 418.94 33.0555 415.935C30.351 413.531 33.0555 412.028 33.0555 408.723C33.0555 405.417 35.76 406.619 35.76 403.915C35.76 401.21 33.0555 400.609 33.0555 398.205C33.0555 395.801 35.4595 392.796 35.76 389.49C36.0605 386.185 30.952 376.268 30.952 370.258C30.952 364.248 28.2475 347.721 28.2475 342.912C28.2475 338.104 30.6515 325.784 30.952 322.478C31.2525 319.173 30.0505 311.961 28.2475 304.148Z" fill="#020202"/>
<path d="M126.813 145.182C125.851 143.98 126.412 125.449 126.813 116.333L107.28 122.944L105.477 132.56C106.178 134.864 107.52 139.712 107.28 140.674C106.979 141.876 110.886 155.098 110.585 159.005C110.285 162.911 113.59 175.232 114.792 179.138C115.994 183.045 118.699 195.065 119.6 198.371C120.502 201.676 120.201 206.184 119.6 208.588C118.999 210.992 117.797 213.095 115.694 214.598C114.011 215.8 110.185 220.908 108.482 223.312L111.186 227.219L113.891 225.416V229.923C113.891 231.726 109.984 246.752 109.684 248.254C109.383 249.757 109.684 252.461 111.186 253.363C112.388 254.084 113.49 251.86 113.891 250.658C114.292 251.059 115.634 251.62 117.797 250.658C120.502 249.456 128.315 238.938 129.217 237.135C130.118 235.332 132.823 210.992 132.823 208.588C132.823 206.184 131.921 201.376 131.921 198.371C131.921 195.366 132.522 184.547 132.823 181.242C133.123 177.936 131.32 159.906 131.02 157.803C130.719 155.699 128.015 146.684 126.813 145.182Z" fill="#D9B6AE"/>
<path d="M22.9813 71.5687C26.0853 69.8827 42.7791 67.2533 51.9318 66.1493H86.2546C89.5376 66.1493 99.3039 68.8739 103.267 69.7622C108.639 70.9666 114.907 76.386 116.996 81.2033C119.085 86.0204 127.441 107.496 131.62 118.235L131.62 118.236C130.824 118.838 128.994 120.043 128.039 120.043C126.845 120.043 118.488 127.57 116.996 129.075C115.802 130.279 111.126 129.577 108.937 129.075C108.937 132.788 108.579 141.6 107.147 147.14C105.356 154.065 109.236 175.742 108.937 179.054C108.639 182.366 111.922 192.904 111.922 195.011C111.922 197.119 114.907 206.452 114.907 209.162C114.907 211.33 116.295 217.479 113.29 217.592C84.1401 218.696 26.8613 223.012 24.4736 223.012C22.0859 223.012 17.7085 219.399 15.8183 217.592L19.3998 203.743L22.9813 151.355L24.4736 141.72C21.7875 139.713 15.9377 135.217 14.0276 133.29C12.1174 131.363 3.87996 129.677 0 129.075C0.497431 127.369 1.79075 123.174 2.98459 120.043C4.47688 116.129 5.37226 105.29 6.86455 95.354C8.35684 85.4184 19.1014 73.6763 22.9813 71.5687Z" fill="#131313"/>
<path d="M56.7959 0.939925C59.4403 -0.502489 63.5071 0.338919 65.21 0.939925C65.4103 1.9416 65.6908 4.36566 65.21 6.04848C64.7292 7.73129 64.8093 13.1604 64.9095 15.6646L58.5989 64.346C56.8961 65.6482 53.25 68.493 52.2884 69.4546C51.0863 70.6566 45.6773 80.2727 45.6773 83.2777C45.6773 86.2828 48.6823 89.8888 48.3818 93.1943C48.0813 96.4999 46.2783 104.313 45.6773 107.618C45.1965 110.263 45.477 115.331 45.6773 117.535C45.3768 116.834 44.7157 114.77 44.4753 112.126C44.1748 108.82 44.7758 97.1009 45.6773 94.9974C46.5788 92.8938 43.2733 86.2828 43.8743 88.0858C44.4753 89.8888 43.2733 94.9974 43.2733 97.1009C43.2733 99.2044 41.4703 108.52 40.2682 110.624C39.3066 112.306 39.4669 115.932 39.6672 117.535C38.7657 115.432 37.2031 110.503 38.1647 107.618C39.1059 104.795 38.5886 99.0546 38.1905 96.37C38.2857 97.0613 38.385 98.4838 38.1647 99.8054C37.8642 101.608 34.5587 110.022 33.6572 111.225C32.936 112.186 34.9594 116.834 36.0612 119.038C35.4602 118.437 33.8976 116.573 32.4552 113.929C31.0128 111.285 31.8542 106.216 32.4552 104.012C32.2548 104.714 31.6739 106.416 30.9527 107.618C30.2314 108.82 29.8508 111.926 29.7506 113.328C29.0495 111.425 28.0678 106.717 29.7506 103.111C31.4335 99.5049 30.4518 90.3896 29.7506 86.2828C29.0495 87.4848 27.6471 90.1292 27.6471 91.0908C27.6471 92.2928 26.4451 94.9974 25.5436 96.1994C24.8224 97.161 25.2431 100.406 25.5436 101.909C24.6421 100.006 23.1396 95.5984 24.3416 93.1943C25.5436 90.7903 22.8391 86.3829 21.3366 84.4797C20.5352 85.1809 18.5719 86.7636 17.1295 87.4848C15.3265 88.3863 13.5235 93.4948 12.622 94.9974C11.7205 96.4999 14.425 98.9039 14.425 100.707C14.425 102.51 14.425 106.717 13.5235 107.618C12.8023 108.34 13.824 111.725 14.425 113.328C14.1245 112.927 13.3432 111.946 12.622 111.225C11.7205 110.323 12.622 105.515 12.622 103.111C12.622 100.707 9.01594 100.106 7.81392 98.0024C6.61191 95.8989 7.21292 89.8888 6.31141 91.0908C5.4099 92.2928 4.8089 94.3963 4.8089 96.1994C4.8089 98.0024 6.01091 100.406 4.8089 101.909C3.84729 103.111 3.40655 106.216 3.30638 107.618C2.80554 106.617 2.10437 104.073 3.30638 101.909C4.80889 99.2044 1.50336 95.2979 1.80386 89.8888C2.10437 84.4797 10.5184 78.4697 12.622 76.3662C14.7255 74.2626 21.6371 68.8536 24.3416 67.3511C27.0461 65.8486 28.8491 61.0405 29.7506 56.533C30.6521 52.0254 32.7557 42.1088 33.6572 40.3058C34.5587 38.5028 34.8592 31.8917 35.4602 29.7882C36.0612 27.6847 38.7657 24.9802 39.9677 23.4776C41.1698 21.9751 43.5738 15.3641 43.5738 14.4626C43.5738 13.561 53.4904 2.74294 56.7959 0.939925Z" fill="#341607"/>
<path d="M70.3179 0.0385868C69.1158 -0.201816 66.4113 0.73976 65.2093 1.2406L63.7068 6.95016L68.5148 17.1673L78.7319 49.6216V70.0558C79.2328 73.5616 80.1142 81.1744 79.6334 83.5784C79.0324 86.5834 83.2395 92.5935 84.4415 95.5985C85.4031 98.0026 84.8422 102.61 84.4415 104.614V114.23C84.4415 113.629 86.8455 103.712 86.8455 104.614V112.427L88.348 105.816C88.949 104.513 90.2712 102.27 90.7521 103.712C91.3531 105.515 88.949 112.427 86.8455 114.831C85.1627 116.754 81.3363 118.837 79.6334 119.639C81.5366 119.438 85.944 118.857 88.348 118.136C90.7521 117.415 96.1611 111.826 98.5651 109.121C98.5651 110.423 98.3848 113.388 97.6636 114.831C96.9424 116.273 94.1578 117.635 92.8556 118.136C94.7588 117.736 99.1661 116.514 101.57 114.831C103.974 113.148 103.774 106.717 103.373 103.712C103.774 104.714 104.575 107.198 104.575 109.121C104.575 111.525 107.28 113.028 108.782 114.23C109.984 115.191 112.689 113.829 113.891 113.028C113.19 113.128 111.367 113.148 109.684 112.427C107.58 111.525 106.979 104.313 107.28 102.51C107.58 100.707 107.881 94.697 107.881 93.7955C107.881 93.0743 105.677 89.4883 104.575 87.7855C105.777 88.7871 108.482 91.1511 109.684 92.5935C110.886 94.0359 111.587 99.4049 111.787 101.909C111.988 99.3047 112.268 93.4349 111.787 90.7905C111.186 87.4849 103.974 82.6769 102.472 79.9724C100.969 77.2679 100.068 70.3563 100.068 67.9523C100.068 65.5482 96.1611 52.3261 95.8606 47.8186C95.5601 43.311 95.5601 35.1974 94.0576 31.5914C92.5551 27.9854 88.348 18.6698 85.0425 12.0587C81.737 5.44764 71.8204 0.33909 70.3179 0.0385868Z" fill="#341607"/>
<path d="M79.312 63.9004C79.312 60.2104 79.9487 58.8574 80.267 55.7824C71.1408 54.0603 52.8882 52.3137 52.8882 54.6753V67.5904C53.4188 69.4355 55.8808 73.7897 61.4839 76.4465C67.087 79.1033 79.312 76.4465 80.267 74.6015C81.2221 72.7565 79.312 65.3764 79.312 63.9004Z" fill="#D9B6AE"/>
<path d="M71.3844 8.30429C69.0444 7.48435 65.8594 7.96265 64.5593 8.30429C62.826 8.98758 59.0343 10.5591 57.7343 11.3791C56.1093 12.404 54.8093 16.8453 54.1593 17.5286C53.5093 18.2119 51.5593 21.6283 50.2593 23.3365C48.9593 25.0447 47.6592 32.2192 47.0092 33.5858C46.3592 34.9524 48.3092 48.2764 48.9593 50.6679C49.6093 53.0594 56.1093 57.8424 57.4093 58.8673C58.7093 59.8922 65.5343 61.9421 69.7594 61.9421C73.9844 61.9421 78.4082 59.4958 79.8344 58.184C82.4344 55.7925 84.0595 49.9846 85.0345 48.2764C86.0095 46.5682 87.9595 44.1767 88.9345 42.1269C89.9095 40.077 89.5845 35.6357 88.9345 34.6107C88.2845 33.5858 86.9845 33.5858 86.9845 34.6107C86.9845 35.4307 86.2261 36.8883 85.6845 39.0521V34.6107C85.6845 33.2442 84.7095 27.7779 84.3845 26.753C84.0595 25.728 83.7345 21.97 82.4344 20.6034C81.1344 19.2368 79.5094 15.1371 78.8594 13.7706C78.2094 12.404 74.3094 9.32922 71.3844 8.30429Z" fill="#E6C2BA"/>
<path d="M3.00392 151.191C3.24432 147.585 4.9071 133.261 5.70844 126.55L9.01398 127.752L24.9406 138.27C23.7386 144.58 21.3346 157.382 21.3346 158.103C21.3346 159.005 22.5366 163.512 22.8371 165.616C23.1376 167.719 24.6401 191.459 25.8421 193.262C27.0442 195.065 30.9507 199.572 31.8522 200.474C32.5734 201.195 40.9675 209.389 45.0743 213.396L53.1879 229.322C52.4867 229.422 50.6637 229.563 48.9809 229.322C47.2981 229.082 44.0727 223.813 42.6703 221.209C42.0693 222.811 39.7855 226.498 35.4582 228.421C31.131 230.344 25.6418 227.018 23.4381 225.115C22.1359 221.509 19.171 213.816 17.7286 211.893C15.9255 209.489 12.019 193.262 9.01398 189.055C6.00895 184.848 3.00392 171.025 3.00392 167.118C3.00392 163.212 2.70342 155.699 3.00392 151.191Z" fill="#D9B6AE"/>
</svg>
