<svg width="38" height="24" viewBox="0 0 38 24" fill="none" xmlns="http://www.w3.org/2000/svg">
<path fill-rule="evenodd" clip-rule="evenodd" d="M18.7562 20.6644C21.437 18.5437 23.157 15.262 23.157 11.5785C23.157 7.89502 21.437 4.61327 18.7562 2.49265C20.7293 0.931814 23.2228 0 25.934 0C32.3286 0 37.5125 5.18387 37.5125 11.5785C37.5125 17.9731 32.3286 23.157 25.934 23.157C23.2228 23.157 20.7293 22.2252 18.7562 20.6644ZM18.7562 20.6644C16.7832 22.2252 14.2897 23.157 11.5785 23.157C5.18387 23.157 0 17.9731 0 11.5785C0 5.18387 5.18387 0 11.5785 0C14.2897 0 16.7832 0.931814 18.7562 2.49265C16.0755 4.61327 14.3555 7.89502 14.3555 11.5785C14.3555 15.262 16.0755 18.5437 18.7562 20.6644Z" fill="black"/>
</svg>
