<svg width="106" height="300" viewBox="0 0 106 300" fill="none" xmlns="http://www.w3.org/2000/svg">
<g filter="url(#filter0_d_2_386)">
<path d="M32.2589 111.717C33.6214 108.174 34.6433 102.066 34.9839 99.4541L37.0274 94.0041L69.7278 82.7633C69.6143 88.8946 70.2047 103.065 73.4747 110.695C77.5623 120.233 82.3311 126.364 84.3749 132.495C86.0099 137.4 85.5103 144.304 85.0561 147.142V252.397V264.319C85.0561 265.681 83.0124 268.747 82.3311 270.45C81.6498 272.153 79.6061 272.494 62.234 274.538C48.3363 276.173 32.3721 273.856 26.1273 272.494C25.1054 272.04 22.7891 269.905 21.6994 265C20.6096 260.095 21.2453 255.462 21.6994 253.759V175.414V147.142C21.3587 145.098 20.8819 139.376 21.6994 132.836C22.7213 124.661 30.5557 116.145 32.2589 111.717Z" fill="#048303"/>
<path d="M52.6029 259.209C44.3821 259.209 28.4011 262.752 21.7788 264.319C22.8064 269.019 24.4981 270.586 25.5257 272.153C26.5533 273.72 41.9844 274.878 52.6029 274.878C61.0977 274.878 79.0045 273.175 82.0702 271.222C85.1359 269.269 84.7952 264.659 84.7952 264.659C77.8304 263.092 60.8237 259.209 52.6029 259.209Z" fill="url(#paint0_linear_2_386)"/>
<path d="M39.4916 232.3L42.8979 228.553H64.6981L67.7638 231.618V241.837L64.0169 246.265H42.8979L39.4916 241.837V232.3Z" stroke="url(#paint1_linear_2_386)"/>
<path d="M37.1076 94.0041V102.86C37.1076 106.267 45.2827 111.036 44.2608 114.442C43.2389 117.848 35.0638 118.189 30.6356 122.617C26.2075 127.045 22.1199 135.902 22.8012 141.011C23.2543 144.409 28.9188 144.904 33.0998 144.648L35.4043 144.417C34.7343 144.513 33.9475 144.596 33.0998 144.648L25.1854 145.439C24.3906 145.099 22.8012 145.167 22.8012 148.164V249.331C22.574 250.58 23.0735 253.078 26.8885 253.078C30.7036 253.078 36.4261 249.331 39.1512 253.078C39.1512 253.078 40.8543 260.572 34.3823 261.934C27.9104 263.297 27.7059 257.37 25.526 259.55C23.3461 261.73 25.5261 268.861 26.8885 272.153L24.8448 271.472C23.4822 269.655 20.8253 264.728 21.0978 259.55C21.3703 254.372 21.2114 182.227 21.0978 146.802C20.8709 141.692 20.8938 130.588 22.8012 127.045C25.1854 122.617 29.614 116.486 30.6356 114.442C31.6573 112.398 33.7011 107.97 34.0417 103.882C34.3142 100.612 36.1992 93.6635 37.1076 90.5978V94.0041Z" fill="#076406"/>
<path d="M69.2149 92.9822V101.839C69.2149 105.245 61.0398 110.014 62.0617 113.42C63.0836 116.826 71.2587 117.167 75.6869 121.595C80.1151 126.023 84.2026 134.88 83.5214 139.989C83.0682 143.388 77.4037 143.882 73.2227 143.626L70.9182 143.395C71.5882 143.491 72.375 143.574 73.2227 143.626L81.1371 144.417C81.9319 144.077 83.5214 144.145 83.5214 147.142V248.309C83.7485 249.558 83.249 252.056 79.434 252.056C75.6189 252.056 68.786 248.65 67.4235 252.056C66.061 255.462 69.3035 260.912 72.962 261.253C76.6205 261.594 78.6166 256.348 80.7965 258.528C82.9764 260.708 80.7964 267.839 79.434 271.131L81.4778 270.45C82.8403 268.633 85.4972 263.706 85.2247 258.528C84.9522 253.351 85.1111 181.205 85.2247 145.78C85.4516 140.67 85.4287 129.566 83.5214 126.023C81.1371 121.595 76.7086 115.464 75.6869 113.42C74.6652 111.376 72.6214 106.948 72.2808 102.86C72.0083 99.5904 70.1233 92.6416 69.2149 89.5759V92.9822Z" fill="#076406"/>
<path d="M39.4915 33.0315C39.4915 34.0534 35.4039 97.751 35.4039 97.751C37.4477 93.3229 52.4354 91.6197 57.2042 91.6197H70.8294C69.5804 73.6799 67.0825 37.3915 67.0825 35.7565C67.0825 34.7346 67.0825 33.8263 66.7418 33.0315C66.4012 32.2367 65.3793 32.0777 65.3793 30.9877V25.5376C65.3793 25.5376 66.4012 23.8345 67.0825 22.8126C67.2714 22.5292 66.7418 18.3844 65.3793 17.3625C64.3968 16.6256 61.6324 16 59.5886 16H46.9853C44.9416 16 42.8978 17.0219 41.1946 17.3625C39.8321 17.635 39.4915 21.1094 39.4915 22.8126L41.1946 25.197V30.9877C41.1946 30.9877 39.4915 32.0096 39.4915 33.0315Z" fill="url(#paint2_linear_2_386)"/>
<path d="M36.4264 85.1478L37.1077 74.5883C37.7958 74.0205 39.8017 72.8851 43.6553 71.5226C47.5089 70.1601 61.9013 69.3653 69.1268 69.1382L69.8046 77.6539C63.6114 77.881 49.4866 78.3508 44.6875 79.6977C39.8327 81.0602 37.2292 83.5582 36.4264 85.1478Z" fill="url(#paint3_linear_2_386)" stroke="#F6E0BD"/>
<path d="M66.0606 51.7661C66.4013 52.4474 66.742 53.1286 67.7638 52.788C67.7638 51.7661 66.2007 52.788 66.0606 51.7661ZM66.0606 51.7661C65.9093 51.4634 65.8924 50.6228 65.9503 49.7223M65.9503 49.7223C66.0227 48.596 66.212 47.3759 66.4013 46.9973C66.6738 46.4523 67.4232 46.316 67.7638 46.316V49.0411L65.9503 49.7223Z" stroke="#935F1E"/>
<path d="M63.3361 52.4474H64.0173M64.6986 52.4474H64.0173M64.0173 52.4474V47.3379M64.0173 45.6348V47.3379M64.0173 47.3379L65.7205 46.316" stroke="#935F1E"/>
<path d="M57.2046 43.2503C56.9321 42.4328 57.0913 41.4336 57.5455 40.8659C57.5455 43.0459 58.9077 43.2503 59.2484 43.5909C59.1349 45.4076 58.9759 49.3135 59.2484 50.4035C59.5209 51.4935 60.9514 50.4035 61.2922 49.7223V41.8878H60.6111V40.8659L62.3142 41.2065V51.766L63.3361 52.7879H61.633C61.0879 52.7879 60.9517 52.3338 60.9517 52.1067C60.8381 52.3338 60.3386 52.7879 59.2485 52.7879C57.886 52.7879 57.8858 50.7442 57.8858 50.0629V45.2941C57.8858 44.2722 57.4771 44.0678 57.2046 43.2503Z" fill="#935F1E"/>
<path d="M52.0949 49.7223L48.6887 51.0848L49.0292 50.7442L51.073 49.7223V48.3598C51.073 47.6785 50.0511 47.3379 49.7105 47.3379C49.3699 47.3379 48.6887 48.3598 48.6887 48.7004L48.6886 52.1067C48.6886 52.788 49.0975 53.8099 49.3699 53.8099C49.7103 53.8099 50.3917 53.8099 50.7324 53.4692C51.0049 53.1967 51.5272 52.4473 51.7543 52.1067C51.8679 52.3338 52.095 52.8561 52.0949 53.1286C52.0948 53.4692 50.7324 54.1505 49.7105 54.4911C48.6886 54.8317 48.0075 54.1505 47.6669 53.4692C47.3262 52.788 47.3262 49.041 48.3481 47.6785C49.37 46.316 50.7325 46.6566 51.4138 46.9972C51.9588 47.2697 52.0949 49.041 52.0949 49.7223Z" fill="#935F1E"/>
<path d="M39.4917 52.1067C39.7642 51.5617 40.2865 50.7442 40.5136 50.4035C41.1566 49.3817 41.5355 50.0629 41.5355 50.4035V52.1067L40.5136 51.0848C40.2865 51.1983 39.8323 51.4936 39.8323 51.7661C39.8323 52.1067 41.5355 53.8098 41.8761 54.4911C42.2167 55.1724 41.5355 56.8755 41.1948 57.2161C40.8542 57.5568 40.1729 57.8974 39.4917 57.8974C38.9467 57.8974 38.8104 57.2161 38.8104 56.8755L39.4917 55.513V56.5349C39.4917 57.0799 40.1729 57.4432 40.5136 57.5568C40.7407 57.4432 41.1948 57.0799 41.1948 56.5349C41.1948 55.8536 39.8323 54.1505 39.4917 53.8098C39.1511 53.4692 39.1511 52.7879 39.4917 52.1067Z" fill="#935F1E"/>
<path d="M42.5574 51.7662V49.3818L43.5793 49.0411V50.4037C45.2824 47.6786 45.9637 48.3598 46.3043 48.7005C46.4969 48.8933 46.6449 52.7881 46.6449 54.8319L45.623 55.5131C45.623 54.0371 45.5549 50.9487 45.2824 50.4037C45.0099 49.8587 44.2605 50.6308 43.9199 51.0849V56.1944L42.898 56.535V51.4256L42.5574 51.7662Z" fill="#935F1E"/>
<path d="M49.7108 56.5349C54.3433 55.1724 63.9037 55.0588 68.1048 55.1724V57.5568C65.8339 57.3297 60.4747 56.9436 57.2046 57.2161C53.1171 57.5568 45.6232 58.238 37.4481 63.3475C42.5576 58.9193 43.9201 58.238 49.7108 56.5349Z" fill="#935F1E"/>
<path d="M52.4355 46.9973V45.9754L54.1387 45.2941V46.9973L56.5231 45.2941V45.6348V46.6566C56.6366 46.7702 56.6594 46.9973 55.8418 46.9973C55.0243 46.9973 54.3658 47.6785 54.1387 48.0192V52.1067L55.1606 51.7661V52.788L53.1168 53.4692V46.9973H52.4355Z" fill="#935F1E"/>
<path d="M46.6358 78.4487C46.0357 76.632 46.3858 70.1222 46.6358 67.0944H59.7639C59.889 69.7438 60.064 75.648 59.7639 78.0703C59.4639 80.4925 55.1377 83.1166 53.0122 84.1259C51.1368 82.9905 47.236 80.2654 46.6358 78.4487Z" stroke="#F6E0BD" stroke-width="2"/>
<path d="M53.1167 82.4227V74.9005V74.5883H58.5668C58.5668 77.7107 58.3304 78.1023 57.9256 78.6758C57.2043 79.6977 54.6128 81.3819 53.1167 82.4227Z" fill="#FC0417" stroke="#433109"/>
<path d="M53.1167 82.4227V74.9005V74.5883H47.6666C47.6666 77.7107 47.903 78.1023 48.3078 78.6758C49.0291 79.6977 51.6206 81.3819 53.1167 82.4227Z" fill="#032D04" stroke="#433109"/>
<path d="M53.1168 73.907H47.6667V71.1819V68.4569H53.1168V73.907Z" fill="#EFE5EC" stroke="#433109"/>
<path d="M58.5668 73.907H53.1167V71.1819V68.4569H58.5668V73.907Z" fill="#C3913A" stroke="#433109"/>
<path d="M47.2838 77.7674C46.7437 76.1687 47.0588 70.4401 47.2838 67.7756H59.0991C59.2117 70.1071 59.3692 75.3028 59.0991 77.4344C58.8291 79.566 54.9356 81.8752 53.0226 82.7633C51.3347 81.7641 47.824 79.3661 47.2838 77.7674Z" stroke="#684400"/>
<path d="M50.5246 75.7237C50.2846 74.997 50.4246 72.3931 50.5246 71.1819H55.7759C55.8259 72.2417 55.8959 74.6034 55.7759 75.5723C55.6559 76.5412 53.9254 77.5908 53.0752 77.9945C52.325 77.5404 50.7647 76.4503 50.5246 75.7237Z" fill="#91292E" stroke="#771F23"/>
<path d="M51.7542 31.669C46.0317 31.3965 41.1947 33.1451 39.4916 34.0534C39.4916 30.9878 51.7542 29.9658 53.798 29.9658H64.0169C63.7898 29.3981 63.4719 28.0583 64.0169 27.2408C64.6981 26.2189 64.0169 24.8564 64.0169 23.1532C64.0169 21.4501 62.995 18.725 60.27 17.3625C58.0899 16.2725 47.5531 16.9083 42.5572 17.3625C43.352 16.9083 45.4867 16 47.6667 16H61.9731C62.6544 16 64.2894 16.4769 65.3794 17.0219C66.7419 17.7031 67.0826 21.1094 67.0826 22.472C67.0826 23.8345 66.0607 25.197 66.0607 25.8783C66.0607 26.5595 65.3794 27.9796 65.3794 29.9658C65.3794 30.6471 65.72 32.2367 66.4013 32.6908C63.9033 32.3502 57.4768 31.9415 51.7542 31.669Z" fill="url(#paint4_linear_2_386)"/>
<path d="M47.6667 65.0506V61.9063V61.6443H48.2507C48.5102 61.6443 49.0293 61.8015 49.0293 62.4304C49.0293 63.0592 48.5102 63.2164 48.2507 63.2164V65.0506H47.6667Z" fill="#334610"/>
<path d="M49.7109 65.0506V61.6443H50.3922V64.4829H51.0735V65.0506H49.7109Z" fill="#334610"/>
<path d="M53.1172 61.6443H51.3289V62.1683H52.2443L51.414 65.0506H53.1172V64.5265H52.2443L53.1172 61.6443Z" fill="#334610"/>
<path d="M53.7986 65.0506V61.6443H55.1611V62.1683H54.3436V62.9544H55.1611V63.4784H54.3436V64.5265H55.1611V65.0506H53.7986Z" fill="#334610"/>
<path d="M55.842 65.0506V61.6443H56.6085L57.3749 63.834V61.6443H57.8858V65.0506H57.3749L56.353 62.6175V65.0506H55.842Z" fill="#334610"/>
<path d="M56.5232 60.2818L57.0001 60.9631L57.5451 60.2818" stroke="#334610" stroke-width="0.5"/>
<path d="M38.8104 271.472V93.6635H66.742V271.472H38.8104Z" fill="url(#paint5_radial_2_386)"/>
<path d="M34.7229 212.543C27.9103 212.543 23.7092 214.587 22.4602 215.609V173.371C22.4602 170.646 24.9971 167.712 25.5259 167.58C28.2509 166.899 42.5573 163.493 46.9855 163.152C50.5281 162.879 73.4411 161.335 84.4547 160.427L84.1141 208.456C70.1483 209.591 41.5354 212.543 34.7229 212.543Z" fill="#ECEAE9" stroke="#ECEAE9" stroke-width="0.5"/>
<path d="M25.0778 167.625C23.2305 168.72 22.1089 171.049 21.7791 172.076V224.465C22.2189 223.552 23.2965 221.452 24.0882 220.356C25.0778 218.987 27.057 217.274 29.3661 216.247C31.6752 215.22 39.922 213.85 43.2208 213.508C45.8598 213.234 71.8097 209.97 84.4548 208.372V159.064C76.4279 159.635 58.263 160.982 49.8182 161.804C39.2623 162.831 27.3869 166.255 25.0778 167.625Z" stroke="#F6C47D" stroke-width="2"/>
<path d="M54.1395 161.883C55.72 161.883 72.5789 159.769 83.7742 159.064V161.531C79.1644 161.531 66.7837 162.518 54.1395 163.645C41.4953 164.773 31.0675 166.112 23.8235 169.283C24.8113 167.521 29.4602 166.632 30.4317 166.112C33.0659 164.702 52.1638 161.883 54.1395 161.883Z" fill="url(#paint6_linear_2_386)"/>
<path d="M22.4612 221.74V215.609C26.5487 212.884 31.6582 212.202 34.7238 211.862C37.7895 211.521 51.074 210.499 53.1178 210.499C54.7528 210.499 70.3764 209.25 76.2806 208.796C71.8524 209.477 60.5435 211.181 58.9085 211.181C56.8647 211.181 39.8333 213.224 32.6801 214.587C26.9575 215.677 23.5966 220.151 22.4612 221.74Z" fill="url(#paint7_linear_2_386)"/>
<path d="M24.2801 178.838C23.7351 178.838 22.6874 181.319 22.4603 181.886L22.577 185.633C22.5664 185.293 23.4625 182.789 24.2801 182.244C25.3021 181.563 26.0829 183.224 26.3238 183.947C27.005 185.991 26.8884 189.04 26.8884 190.743C26.8884 192.446 26.3238 194.149 25.8666 195.171C25.4731 196.05 24.1634 197.896 23.4822 197.215C23.1416 196.874 23.1416 196.193 23.1416 194.49V194.49C23.1416 192.787 24.1663 190.419 24.6205 189.738C24.1663 190.419 22.9174 192.122 22.577 193.144C22.3844 193.722 22.1197 196.874 22.577 199.275C22.9176 199.616 24.2315 199.804 25.8665 197.896C27.5016 195.989 28.2507 191.424 27.9103 187.677C27.9103 186.201 27.482 182.789 26.6645 180.881C25.6426 178.497 24.9614 178.838 24.2801 178.838Z" fill="#0E3615"/>
<path d="M27.0056 188.375C25.9837 188.716 24.9618 189.624 24.6212 190.078C24.7348 189.738 25.2343 188.852 26.3244 188.035C27.4144 187.217 28.5952 187.921 29.0494 188.375L28.7088 190.078C28.0275 189.056 28.0275 188.035 27.0056 188.375Z" fill="#0E3615"/>
<path d="M25.186 184.952H24.1641V206.752L25.186 206.06V184.952Z" fill="#0E3615"/>
<path d="M29.7308 192.122H29.0495L28.7089 192.45V200.978L29.7308 200.322V192.122Z" fill="#0E3615"/>
<path d="M30.7524 185.65L30.0712 186.331H30.7524V199.957L31.7743 199.275V185.65H30.7524Z" fill="#0E3615"/>
<path d="M83.1414 179.859L82.8689 180.541H83.1414V194.166L83.5502 193.485V179.859H83.1414Z" fill="#0E3615"/>
<path d="M32.4559 191.782C32.4559 190.964 33.1372 190.305 33.4778 190.078C34.4997 189.397 35.181 189.738 35.5216 189.738C35.8622 189.738 35.8622 190.078 35.8622 190.76C35.8622 191.305 35.4081 191.668 35.181 191.782C34.9539 191.441 34.4316 190.692 34.1591 190.419C33.8184 190.078 33.4778 190.76 33.4778 191.441C33.4778 192.122 34.8403 193.825 35.181 194.507C35.5216 195.188 36.2029 195.528 36.2029 196.55C36.2029 197.572 35.5216 198.594 34.8403 199.275C34.2953 199.82 33.2507 199.048 32.7966 198.594C32.7966 198.026 32.8647 196.959 33.1372 197.232C33.4778 197.572 33.4778 198.935 34.4997 198.935C35.5216 198.935 35.181 197.913 35.181 197.572C35.181 197.232 33.8184 195.528 33.4778 194.847C33.1372 194.166 32.4559 192.803 32.4559 191.782Z" fill="#0E3615"/>
<path d="M37.2247 198.253V190.078L38.5872 189.397V189.738V190.419C38.8143 190.192 39.4729 189.67 40.2904 189.397C41.1079 189.125 41.5394 189.738 41.6529 190.078V197.232L40.2904 197.913V191.782C40.2904 191.554 40.1541 191.1 39.6091 191.1C39.0641 191.1 38.7008 191.554 38.5872 191.782V197.572L37.2247 198.253Z" fill="#0E3615"/>
<path d="M43.0153 191.1C43.0153 189.738 43.9237 188.943 44.3779 188.716V192.803L46.7623 191.781C46.7623 191.1 46.6941 189.601 46.4216 189.056C46.1491 188.511 45.3997 188.829 45.0591 189.056C44.6733 189.056 44.2012 188.852 45.3997 188.034C48.1248 186.672 48.3519 189.965 48.1248 191.781L44.3779 193.485V194.166C44.3779 195.188 45.3997 196.55 46.081 196.55C46.626 196.55 47.6706 195.869 48.1248 195.528C47.6706 196.096 46.626 197.231 46.081 197.231C45.3997 197.231 44.0372 197.572 43.356 196.55C42.6747 195.528 43.0153 192.803 43.0153 191.1Z" fill="#0E3615"/>
<path d="M79.5065 188.003C79.5065 186.646 79.977 185.854 80.2122 185.628V189.7L81.4472 188.682C81.4472 188.003 81.412 186.51 81.2708 185.967C81.1297 185.424 80.7415 185.741 80.5651 185.967C80.3652 185.967 80.1207 185.763 80.7415 184.949C82.153 183.591 82.2706 186.872 82.153 188.682L80.2122 190.379V191.057C80.2122 192.075 80.7415 193.433 81.0944 193.433C81.3767 193.433 81.9177 192.754 82.153 192.415C81.9177 192.98 81.3767 194.112 81.0944 194.112C80.7415 194.112 80.0358 194.451 79.6829 193.433C79.3301 192.415 79.5065 189.7 79.5065 188.003Z" fill="#0E3615"/>
<path d="M49.1462 196.55V188.035L50.5088 187.226V189.056C50.8494 188.489 51.735 187.328 52.5525 187.226C53.5744 187.098 53.5744 188.375 53.5744 188.716C53.5744 188.988 53.1202 189.511 52.8932 189.738C52.8932 189.511 52.825 188.988 52.5525 188.716C52.28 188.443 51.0765 189.284 50.5088 189.738V196.21L49.1462 196.55Z" fill="#0E3615"/>
<path d="M52.5527 181.563C52.5527 181.018 53.6882 179.973 54.2559 179.519C54.2559 179.859 54.2559 181.222 54.5965 181.903C54.869 182.448 56.5267 183.947 57.3215 184.628C57.208 187.58 57.1172 193.553 57.6622 193.825C58.2072 194.098 59.2518 193.03 59.7059 192.463V182.585H59.3653V181.563H61.4091V194.847L59.7059 195.869V194.507C59.1382 194.847 57.8666 195.597 57.3215 195.869C56.6403 196.21 55.6184 195.528 55.2778 194.847C55.0053 194.302 55.1642 188.035 55.2778 184.969C54.3694 184.061 52.5527 182.108 52.5527 181.563Z" fill="#0E3615"/>
<path d="M63.1119 188.035V186.331L65.1557 185.991V187.353C65.6099 187.013 66.6545 186.263 67.1995 185.991C67.7445 185.718 67.6537 186.786 67.5401 187.353C67.4266 187.58 67.1314 187.966 66.8589 187.694C66.5864 187.421 65.6099 188.035 65.1557 188.375V194.847L64.1338 195.528V187.694L63.1119 188.035Z" fill="#0E3615"/>
<path d="M68.9034 186.331C69.7209 185.514 71.0607 185.991 71.6284 186.331L71.2877 187.353L70.6064 187.694C70.3793 187.808 69.857 188.443 69.5845 190.078C69.2439 192.122 69.9252 192.803 70.6064 192.803C71.1514 192.803 71.7418 192.122 71.9689 191.782V185.65H72.9908V200.638H73.6721L71.6284 203.022V193.485C70.6067 194.847 68.5628 194.166 68.2222 193.485C67.8815 192.803 67.8815 187.353 68.9034 186.331Z" fill="#0E3615"/>
<path d="M74.0126 187.013V185.65H75.7157V192.122C75.7157 193.212 76.7092 192.576 77.206 192.122V186.331H76.7376V185.31H78.4408V193.825L77.4189 194.507V193.825C77.5324 193.712 77.487 193.621 76.397 194.166C75.307 194.711 74.8074 194.393 74.6938 194.166V187.013H74.0126Z" fill="#0E3615"/>
<path d="M25.7997 202.211C25.2572 201.984 25.5736 201.17 25.7997 200.791C24.7828 202.211 25.1214 203.346 26.1385 203.346C27.1556 203.346 44.4462 200.791 50.2097 200.224C54.8205 199.77 73.6029 199.467 82.4177 199.372L83.7738 196.534C78.8013 196.723 67.8393 197.158 63.7709 197.385C58.6855 197.669 39.3607 199.656 35.9704 200.224C32.5801 200.791 26.4777 202.495 25.7997 202.211Z" fill="#0E3615"/>
<path d="M84.4549 165.877C68.1047 167.239 48.4844 169.419 44.9419 169.964C40.5137 170.646 27.2292 170.305 21.4385 175.074" stroke="url(#paint8_linear_2_386)"/>
<path d="M84.1142 204.027C72.1922 205.731 51.5501 205.867 48.0075 206.412C43.5793 207.093 27.5698 207.093 21.7791 211.862" stroke="url(#paint9_linear_2_386)"/>
<path d="M35.159 148.729C34.3415 149.274 33.2287 149.864 32.7746 150.091C31.4123 150.091 30.7305 150.772 30.0493 151.113C29.368 151.454 29.7087 153.157 29.7087 153.838C29.7087 154.519 26.9839 156.904 26.6432 158.266C26.3026 159.629 26.9839 160.31 26.9839 161.672C26.9839 163.035 26.6432 166.441 26.6432 168.144C26.6432 169.848 26.9839 170.188 27.6651 171.891C28.3464 173.594 29.0276 174.276 29.0276 175.638C29.0276 177.001 31.0714 179.045 32.0933 179.385C33.1152 179.726 34.1371 179.726 35.159 180.066C36.1808 180.407 36.1808 181.429 37.884 181.429H40.2684H45.0372C47.081 181.429 48.1029 179.385 48.1029 178.363C48.1029 177.341 49.1248 176.319 50.1467 175.638C51.1685 174.957 51.8498 174.616 52.5311 174.276C53.2123 173.935 53.8936 170.869 53.2123 170.188C52.5311 169.507 52.8717 168.485 53.2123 167.463C53.5529 166.441 53.8936 166.101 53.8936 165.079C53.8936 164.057 53.5529 161.332 53.2123 160.651C52.8717 159.969 51.1685 158.266 50.8279 157.585C50.4873 156.904 50.1467 155.2 50.1467 154.519C50.1467 153.838 48.7841 153.157 48.1029 153.157C47.4216 153.157 46.3997 151.794 46.0591 151.454C45.7185 151.113 45.0372 150.091 43.6747 150.091H40.2684C39.2465 150.091 38.5653 148.729 37.884 148.388C37.2027 148.047 36.1808 148.047 35.159 148.729Z" fill="#C1141E" stroke="#F44C43"/>
<path d="M38.3513 151.721C36.7163 151.448 35.1721 151.607 34.6044 151.721C31.1981 153.083 30.1762 155.809 29.1543 158.193C28.3368 160.1 28.5866 164.665 28.8137 166.709V162.621C28.8137 160.577 29.495 159.555 30.1762 157.512C30.8575 155.468 33.9232 153.084 35.2857 152.743C36.6482 152.402 39.7139 152.402 41.417 153.084C43.1201 153.765 45.8452 155.127 46.5264 155.468C47.2077 155.809 48.7831 157.852 49.9327 160.237C51.0824 162.621 50.9546 164.324 50.9546 166.027C50.9546 167.731 50.2734 170.796 49.5921 172.499C48.9108 174.203 46.5264 175.906 45.5045 176.928C44.4827 177.949 41.417 178.971 39.7139 178.971C38.0107 178.971 34.6044 178.29 33.2419 177.609C32.1519 177.064 29.8356 173.294 28.8137 171.478C29.2679 172.386 30.2444 174.407 30.5169 175.224C30.8575 176.246 33.5825 178.631 34.945 178.971C36.3076 179.312 38.0107 179.653 39.7139 179.653C41.417 179.653 44.1441 179.09 44.6011 178.48C45.623 177.118 47.2077 176.246 48.9108 174.884C50.614 173.521 50.614 171.818 50.9546 170.796C51.2952 169.774 51.2952 168.412 51.9765 166.368C52.6578 164.324 50.2734 159.555 49.2515 157.852C48.2296 156.149 45.1639 154.446 43.8014 153.424C42.4389 152.402 40.3951 152.062 38.3513 151.721Z" fill="#4B0600"/>
<path d="M53.1367 160.908C52.8648 160.042 52.654 160.094 52.4354 159.842L52.6426 161.264C52.6749 161.485 53.3097 162.211 53.4823 162.564C53.4537 162.008 53.4086 161.775 53.1367 160.908Z" fill="#FF7A76"/>
<path d="M36.7665 148.505C37.2602 148.463 37.7583 148.691 37.9724 148.773L38.4696 149.387C37.6317 149.046 37.7538 149.102 36.7665 149.186C35.5323 149.291 33.769 150.412 33.3602 150.549C32.3383 150.889 30.8929 151.288 30.6351 151.911C30.3773 152.535 30.4599 152.953 30.2946 153.614C29.9539 154.977 29.2726 154.977 28.2506 156.339C28.5914 155.658 28.9314 155.317 29.2724 154.977C29.43 154.819 29.5496 154.617 29.8328 154.292C30.116 153.967 29.954 153.67 29.954 152.592C29.954 152.252 29.7612 151.956 29.954 151.57C30.2946 150.889 32.4947 150.141 32.8032 150.115C33.1118 150.089 34.012 149.712 34.2952 149.387C34.5784 149.062 36.1494 148.557 36.7665 148.505Z" fill="#FF7A76"/>
<path d="M45.9637 180.183C45.1462 180.728 42.5574 181.092 41.5355 181.205C44.2606 181.205 45.6706 181.287 46.3043 180.865C47.3262 180.183 48.0075 178.48 48.0075 177.799C47.6669 178.48 46.7812 179.638 45.9637 180.183Z" fill="#FF5B5B"/>
<path d="M35.4042 157.428C33.7692 157.973 32.9063 159.472 32.6792 160.153C34.0417 158.109 35.7449 157.323 37.448 157.428C39.1512 157.533 40.173 157.769 42.2168 159.131C43.8518 160.221 44.9419 162.765 45.2825 163.9C45.1689 162.878 44.465 160.426 42.5574 158.791C40.173 156.747 37.448 156.747 35.4042 157.428Z" fill="#FF7A76"/>
<path d="M41.1948 175.074C42.8986 174.815 43.5805 173.322 43.92 172.69C42.2301 174.472 40.8213 175.067 39.1513 174.733C37.4478 174.393 36.4259 174.052 34.6966 172.46C33.2509 171.129 32.6283 168.416 32.4855 167.24C32.4238 168.266 32.6133 170.879 34.303 172.738C36.4265 175.074 39.065 175.398 41.1948 175.074Z" fill="#4B0600"/>
<path d="M40.8539 174.733C42.5578 174.474 43.9291 173.024 44.2687 172.391C42.5788 174.174 40.7668 174.66 39.1063 174.267C37.4457 173.874 36.4787 173.468 34.6961 171.778C33.27 170.426 32.6278 167.735 32.485 166.558C32.4233 167.584 32.7004 170.121 34.3025 172.056C36.3051 174.475 38.7241 175.057 40.8539 174.733Z" fill="#FF7A76"/>
</g>
<defs>
<filter id="filter0_d_2_386" x="0.779053" y="0" width="104.721" height="299.1" filterUnits="userSpaceOnUse" color-interpolation-filters="sRGB">
<feFlood flood-opacity="0" result="BackgroundImageFix"/>
<feColorMatrix in="SourceAlpha" type="matrix" values="0 0 0 0 0 0 0 0 0 0 0 0 0 0 0 0 0 0 127 0" result="hardAlpha"/>
<feOffset dy="4"/>
<feGaussianBlur stdDeviation="10"/>
<feColorMatrix type="matrix" values="0 0 0 0 0 0 0 0 0 0 0 0 0 0 0 0 0 0 0.25 0"/>
<feBlend mode="normal" in2="BackgroundImageFix" result="effect1_dropShadow_2_386"/>
<feBlend mode="normal" in="SourceGraphic" in2="effect1_dropShadow_2_386" result="shape"/>
</filter>
<linearGradient id="paint0_linear_2_386" x1="53.288" y1="274.878" x2="53.1167" y2="264.319" gradientUnits="userSpaceOnUse">
<stop stop-color="#020B02"/>
<stop offset="1" stop-color="#048303"/>
</linearGradient>
<linearGradient id="paint1_linear_2_386" x1="39.4916" y1="237.409" x2="68.1044" y2="237.409" gradientUnits="userSpaceOnUse">
<stop stop-color="#A9AB67"/>
<stop offset="1" stop-color="#696103"/>
</linearGradient>
<linearGradient id="paint2_linear_2_386" x1="39.1509" y1="35.0752" x2="66.0606" y2="34.7346" gradientUnits="userSpaceOnUse">
<stop stop-color="#C19345"/>
<stop offset="0.375" stop-color="#EDC88B"/>
<stop offset="1" stop-color="#C19345"/>
</linearGradient>
<linearGradient id="paint3_linear_2_386" x1="36.767" y1="77.3133" x2="70.4893" y2="74.9289" gradientUnits="userSpaceOnUse">
<stop offset="0.0104167" stop-color="#114B12"/>
<stop offset="0.379289" stop-color="#3C923E"/>
<stop offset="1" stop-color="#114B12"/>
</linearGradient>
<linearGradient id="paint4_linear_2_386" x1="45.2823" y1="16" x2="67.4232" y2="17.3625" gradientUnits="userSpaceOnUse">
<stop stop-color="#D09951"/>
<stop offset="0.25" stop-color="#F2BB73"/>
<stop offset="1" stop-color="#B08040"/>
</linearGradient>
<radialGradient id="paint5_radial_2_386" cx="0" cy="0" r="1" gradientUnits="userSpaceOnUse" gradientTransform="translate(52.7762 182.568) rotate(90) scale(88.9043 13.9658)">
<stop stop-color="#36D002"/>
<stop offset="1" stop-color="#36D002" stop-opacity="0"/>
</radialGradient>
<linearGradient id="paint6_linear_2_386" x1="51.4145" y1="162.13" x2="84.7961" y2="160.427" gradientUnits="userSpaceOnUse">
<stop stop-color="#7D531E"/>
<stop offset="1" stop-color="#D59F5B"/>
</linearGradient>
<linearGradient id="paint7_linear_2_386" x1="22.4612" y1="214.587" x2="73.5556" y2="208.796" gradientUnits="userSpaceOnUse">
<stop stop-color="#B6874E"/>
<stop offset="0.625" stop-color="#8B5613"/>
</linearGradient>
<linearGradient id="paint8_linear_2_386" x1="22.4604" y1="175.415" x2="84.4549" y2="168.943" gradientUnits="userSpaceOnUse">
<stop stop-color="#F6C47D"/>
<stop offset="0.477736" stop-color="#FDDFB4"/>
<stop offset="1" stop-color="#F6C47D"/>
</linearGradient>
<linearGradient id="paint9_linear_2_386" x1="23.4822" y1="210.84" x2="85.4767" y2="204.368" gradientUnits="userSpaceOnUse">
<stop stop-color="#F6C47D"/>
<stop offset="0.477736" stop-color="#FDDFB4"/>
<stop offset="1" stop-color="#F6C47D"/>
</linearGradient>
</defs>
</svg>
