<svg width="225" height="247" viewBox="0 0 225 247" fill="none" xmlns="http://www.w3.org/2000/svg">
<g filter="url(#filter0_d_2_451)">
<path d="M87.6474 149.186L83.2586 151.526C78.8697 157.671 87.6474 158.549 87.6474 162.645C87.6474 166.741 105.788 173.471 105.788 174.934C105.788 176.104 124.319 184.98 133.584 189.271C135.925 189.661 140.607 189.798 140.607 187.223C140.607 184.004 143.533 179.908 143.533 177.86C143.533 175.812 149.092 170.252 149.092 166.449C149.092 163.406 151.238 158.549 152.31 156.5C154.261 154.842 158.513 151.058 159.918 149.186C161.673 146.845 174.84 123.145 176.888 120.512C178.936 117.878 193.859 87.156 196.199 85.6931C198.54 84.2301 202.929 67.8449 202.929 65.5042C202.929 63.1634 196.199 59.0671 193.859 59.0671C191.518 59.0671 185.666 68.4301 182.155 73.1116C179.346 76.8568 174.547 83.0597 172.499 85.6931C176.205 79.1585 184.437 64.3338 187.714 57.3116C191.81 48.5338 190.347 40.9264 190.347 38.8782C190.347 36.8301 187.129 35.0745 182.155 33.6116C177.181 32.1486 177.181 36.5375 174.84 38.8782C172.499 41.219 160.503 70.4783 159.918 73.1116C159.333 75.7449 156.699 76.3301 156.114 74.5745C155.529 72.819 161.966 60.5301 162.551 59.0671C163.136 57.6042 168.988 44.4375 170.159 42.9745C171.329 41.5116 173.377 30.393 172.499 28.0523C171.622 25.7116 167.525 22.7856 166.062 22.7856C164.599 22.7856 161.088 21.6153 158.162 22.7856C155.236 23.956 149.97 40.6338 149.092 42.9745C148.214 45.3153 140.314 59.3597 140.607 57.3116C140.899 55.2634 143.533 41.219 145.288 33.6116C147.044 26.0042 146.459 19.5672 143.533 18.1042C140.607 16.6412 135.633 15.7635 133.877 16.0561C132.473 16.2901 130.171 18.4943 129.196 19.5672C125.099 35.8548 116.848 68.8398 116.614 70.4783C116.322 72.5264 112.81 95.9339 111.933 97.982C111.055 100.03 109.299 108.223 105.788 112.319C102.277 116.415 101.984 135.141 100.522 137.189C99.0586 139.238 99.0586 141.286 97.303 141.871C95.5474 142.456 93.2067 144.212 92.0363 145.382C91.1 146.318 88.7203 148.308 87.6474 149.186Z" fill="#1F1D20"/>
<path d="M141.834 157.198L137.566 155.413L128.707 175.879L132.997 177.372L141.834 157.198Z" fill="#CACACA" stroke="#CACACA" stroke-width="3" stroke-linejoin="round"/>
<path d="M89.344 159.663C89.0515 157.907 83.7848 157.322 83.7848 152.641C83.1996 151.861 81.7952 150.768 80.8589 152.641C79.6885 154.981 83.7848 157.322 83.7848 159.663C83.7848 162.004 86.1255 162.296 87.0033 164.052C87.7055 165.456 98.6095 171.659 103.974 174.585C112.069 178.877 128.961 187.869 131.77 189.507C135.281 191.556 139.377 190.093 141.133 189.507C142.537 189.039 141.718 185.801 141.133 184.241C140.548 185.119 139.026 186.991 137.622 187.459C135.866 188.044 129.722 184.826 128.259 184.241C126.796 183.656 109.24 174.878 108.363 172.537C107.485 170.196 94.9033 166.393 92.5626 165.515C90.2218 164.637 89.6366 161.419 89.344 159.663Z" fill="#5E5E5E"/>
<path d="M187.362 77.1518L194.385 87.9778C199.359 85.3444 204.625 69.3689 204.625 67.4963C204.625 65.6237 201.309 62.8148 199.651 61.6444C199.651 61.6444 197.018 60.474 194.385 63.9852C191.751 67.4963 187.362 77.1518 187.362 77.1518Z" fill="#5D5D5D"/>
<path d="M178.584 38.8222C177.414 40.4607 174.586 49.258 173.318 53.4518L174.488 54.3296L183.851 59.3037C185.411 56.1827 188.532 49.1214 188.532 45.8444C188.532 42.5674 189.118 36.4815 187.655 35.6037L185.607 34.7259L182.095 33.5555C180.925 33.2629 179.755 37.1837 178.584 38.8222Z" fill="#5D5D5D"/>
<path d="M158.689 27.1342C157.518 28.7727 154.69 37.57 153.422 41.7638L154.592 42.6416L163.955 47.6157C165.516 44.4947 168.637 37.4334 168.637 34.1564C168.637 30.8794 170.1 24.7779 168.637 23.9001L167.174 22.7298L161.322 22.1445C160.152 21.8519 159.859 25.4957 158.689 27.1342Z" fill="#5D5D5D"/>
<path d="M139.084 37.6519C141.425 32.0341 142.303 22.0469 142.303 17.463C141.328 16.9753 137.153 16 135.281 16C132.94 16 130.599 16.8778 127.966 20.3889C125.332 23.9 123.87 39.9926 120.066 53.1593C117.023 63.6926 114.799 80.7605 113.922 87.9778C114.702 87.1 116.321 84.8178 117.725 82.7111C119.481 80.0778 119.481 76.5667 119.188 71.3C119.188 68.9593 128.356 65.4482 132.94 63.9852L134.696 51.9889C133.233 51.4037 129.838 49.9408 127.966 48.7704C125.625 47.3074 126.21 42.9185 127.966 39.9926C129.721 37.0667 133.818 37.9445 139.084 37.6519Z" fill="#5D5D5D"/>
<path d="M131.478 69.8371C131.244 67.4963 138.012 33.7507 141.426 17.1704C144.937 18.0482 146.107 20.3889 146.4 23.0223C146.634 25.1289 146.205 29.947 145.815 32.0926L140.548 57.5482C141.036 56.8655 142.128 55.3245 142.596 54.6223C143.064 53.92 146.888 46.9173 148.741 43.5037L152.252 34.1408C154.885 27.1186 156.348 23.9 157.518 23.0223C158.883 21.9986 160.152 22.242 161.03 22.1445C159.469 27.2161 156.055 38.12 154.885 41.163C153.422 44.9667 138.5 75.6889 138.207 75.6889C137.915 75.6889 134.696 76.5667 133.526 75.6889C132.355 74.8112 131.77 72.763 131.478 69.8371Z" fill="#F38A3C"/>
<path d="M134.988 72.4703C131.184 84.9543 123.811 111.327 124.747 116.944C125.918 123.967 148.74 124.844 145.521 133.33C142.946 140.118 130.599 168.733 124.747 182.193" stroke="#F38A3C" stroke-width="5"/>
<path d="M136.978 180.786L141.367 183.126C145.756 189.271 136.978 190.149 136.978 194.245C136.978 198.341 118.837 205.071 118.837 206.534C118.837 207.704 100.306 216.579 91.0409 220.871C88.7001 221.261 84.0187 221.398 84.0187 218.823C84.0187 215.604 81.0927 211.508 81.0927 209.46C81.0927 207.412 75.5335 201.852 75.5335 198.049C75.5335 195.006 73.3878 190.149 72.3149 188.1C70.3643 186.442 66.112 182.658 64.7075 180.786C62.952 178.445 49.7853 154.745 47.7372 152.112C45.689 149.478 30.7668 118.756 28.426 117.293C26.0853 115.83 21.6964 99.4449 21.6964 97.1041C21.6964 94.7634 28.426 90.6671 30.7668 90.6671C33.1075 90.6671 38.9594 100.03 42.4705 104.712C45.2794 108.457 50.0779 114.66 52.126 117.293C48.4199 110.758 40.1883 95.9338 36.9112 88.9115C32.8149 80.1338 34.2779 72.5264 34.2779 70.4782C34.2779 68.4301 37.4964 66.6745 42.4705 65.2115C47.4446 63.7486 47.4446 68.1375 49.7853 70.4782C52.126 72.8189 64.1223 102.078 64.7075 104.712C65.2927 107.345 67.9261 107.93 68.5112 106.175C69.0964 104.419 62.6594 92.1301 62.0742 90.6671C61.489 89.2041 55.6372 76.0375 54.4668 74.5745C53.2964 73.1115 51.2483 61.993 52.126 59.6523C53.0038 57.3115 57.1001 54.3856 58.5631 54.3856C60.026 54.3856 63.5372 53.2152 66.4631 54.3856C69.389 55.556 74.6557 72.2338 75.5335 74.5745C76.4112 76.9152 84.3112 90.9597 84.0187 88.9115C83.7261 86.8634 81.0927 72.8189 79.3372 65.2115C77.5816 57.6041 78.1668 51.1671 81.0927 49.7042C84.0187 48.2412 88.9927 47.3634 90.7483 47.656C92.1527 47.8901 94.4545 50.0943 95.4298 51.1671C99.5261 67.4548 107.777 100.44 108.011 102.078C108.304 104.126 111.815 127.534 112.693 129.582C113.571 131.63 115.326 139.823 118.837 143.919C122.348 148.015 122.641 166.741 124.104 168.789C125.567 170.838 125.567 172.886 127.322 173.471C129.078 174.056 131.419 175.812 132.589 176.982C133.525 177.918 135.905 179.908 136.978 180.786Z" fill="#1F1D20"/>
<path d="M82.7915 188.798L87.0596 187.013L95.9184 207.479L91.6285 208.972L82.7915 188.798Z" fill="#CACACA" stroke="#CACACA" stroke-width="3" stroke-linejoin="round"/>
<path d="M135.281 191.263C135.574 189.507 140.841 188.922 140.841 184.241C141.426 183.46 142.83 182.368 143.767 184.241C144.937 186.581 140.841 188.922 140.841 191.263C140.841 193.604 138.5 193.896 137.622 195.652C136.92 197.056 126.016 203.259 120.652 206.185C112.557 210.477 95.6643 219.469 92.8554 221.107C89.3443 223.156 85.248 221.693 83.4924 221.107C82.088 220.639 82.9072 217.401 83.4924 215.841C84.0776 216.719 85.5991 218.591 87.0035 219.059C88.7591 219.644 94.9035 216.426 96.3665 215.841C97.8295 215.256 115.385 206.478 116.263 204.137C117.141 201.796 129.722 197.993 132.063 197.115C134.404 196.237 134.989 193.019 135.281 191.263Z" fill="#5E5E5E"/>
<path d="M37.2631 108.752L30.2408 119.578C25.2668 116.944 20.0001 100.969 20.0001 99.0962C20.0001 97.2236 23.3161 94.4148 24.9742 93.2444C24.9742 93.2444 27.6075 92.074 30.2408 95.5851C32.8742 99.0962 37.2631 108.752 37.2631 108.752Z" fill="#5D5D5D"/>
<path d="M46.0409 70.4221C47.2113 72.0607 50.0397 80.858 51.3076 85.0518L50.1372 85.9296L40.7743 90.9036C39.2138 87.7826 36.0928 80.7214 36.0928 77.4444C36.0928 74.1673 35.5076 68.0815 36.9706 67.2037L39.0187 66.3259L42.5298 65.1555C43.7002 64.8629 44.8706 68.7836 46.0409 70.4221Z" fill="#5D5D5D"/>
<path d="M65.9366 58.7342C67.1069 60.3727 69.9353 69.17 71.2032 73.3638L70.0329 74.2416L60.6699 79.2156C59.1094 76.0947 55.9884 69.0334 55.9884 65.7564C55.9884 62.4793 54.5255 56.3779 55.9884 55.5001L57.4514 54.3297L63.3032 53.7445C64.4736 53.4519 64.7662 57.0956 65.9366 58.7342Z" fill="#5D5D5D"/>
<path d="M85.5411 69.2518C83.2004 63.6341 82.3224 53.6469 82.3224 49.0629C83.2977 48.5753 87.4722 47.6 89.3446 47.6C91.6851 47.6 94.0261 48.4778 96.6596 51.9889C99.2932 55.5 100.756 71.5926 104.559 84.7592C107.602 95.2926 109.826 112.36 110.704 119.578C109.924 118.7 108.305 116.418 106.9 114.311C105.145 111.678 105.145 108.167 105.437 102.9C105.437 100.559 96.2693 97.0481 91.6853 95.5852L89.9298 83.5889C91.3928 83.0037 94.7871 81.5407 96.6596 80.3704C99.0004 78.9074 98.4152 74.5185 96.6596 71.5926C94.9041 68.6666 90.8078 69.5444 85.5411 69.2518Z" fill="#5D5D5D"/>
<path d="M93.1475 101.437C93.3816 99.0963 86.613 65.3506 83.1994 48.7704C79.6885 49.6482 78.5181 51.9889 78.2255 54.6222C77.9914 56.7289 78.4206 61.5469 78.8107 63.6926L84.0774 89.1482C83.5897 88.4655 82.4974 86.9245 82.0292 86.2222C81.5611 85.52 77.7378 78.5173 75.8848 75.1037L72.3736 65.7408C69.7403 58.7185 68.2773 55.5 67.107 54.6222C65.7421 53.5986 64.4736 53.842 63.5959 53.7445C65.1564 58.8161 68.5699 69.72 69.7403 72.763C71.2033 76.5667 86.1255 107.289 86.4181 107.289C86.7107 107.289 89.9292 108.167 91.0996 107.289C92.2699 106.411 92.8549 104.363 93.1475 101.437Z" fill="#F38A3C"/>
<path d="M89.6373 104.07C93.441 116.554 100.814 142.927 99.8781 148.544C98.7077 155.567 75.8857 156.444 79.1042 164.93C81.6791 171.718 94.0263 200.333 99.8781 213.793" stroke="#F38A3C" stroke-width="5"/>
</g>
<defs>
<filter id="filter0_d_2_451" x="0.00012207" y="0" width="224.625" height="246.162" filterUnits="userSpaceOnUse" color-interpolation-filters="sRGB">
<feFlood flood-opacity="0" result="BackgroundImageFix"/>
<feColorMatrix in="SourceAlpha" type="matrix" values="0 0 0 0 0 0 0 0 0 0 0 0 0 0 0 0 0 0 127 0" result="hardAlpha"/>
<feOffset dy="4"/>
<feGaussianBlur stdDeviation="10"/>
<feColorMatrix type="matrix" values="0 0 0 0 0 0 0 0 0 0 0 0 0 0 0 0 0 0 0.25 0"/>
<feBlend mode="normal" in2="BackgroundImageFix" result="effect1_dropShadow_2_451"/>
<feBlend mode="normal" in="SourceGraphic" in2="effect1_dropShadow_2_451" result="shape"/>
</filter>
</defs>
</svg>
